<?xml version="1.0" standalone="no"?>
<!DOCTYPE svg PUBLIC "-//W3C//DTD SVG 20010904//EN"
 "http://www.w3.org/TR/2001/REC-SVG-20010904/DTD/svg10.dtd">
<svg version="1.0" xmlns="http://www.w3.org/2000/svg"
 width="2214.000000pt" height="2213.000000pt" viewBox="0 0 2214.000000 2213.000000"
 preserveAspectRatio="xMidYMid meet">

<g transform="translate(0.000000,2213.000000) scale(0.100000,-0.100000)"
fill="#000000" stroke="none">
<path d="M11090 19724 c-25 -2 -110 -8 -190 -14 -1235 -91 -2588 -541 -3645
-1213 -460 -293 -834 -578 -1214 -926 -129 -117 -639 -662 -784 -835 -198
-239 -492 -651 -547 -769 -30 -63 -30 -63 -15 -122 35 -138 80 -268 101 -291
38 -40 58 -32 108 46 78 120 317 444 462 626 354 444 755 859 1187 1229 314
269 618 491 989 721 391 243 422 261 663 379 241 118 357 169 576 255 578 226
1226 391 1819 464 414 51 406 51 910 51 526 0 587 -4 1025 -66 454 -64 905
-177 1375 -345 518 -184 903 -370 1410 -680 484 -295 560 -347 765 -524 207
-177 278 -222 462 -289 168 -61 463 -149 513 -153 45 -3 45 -3 42 27 -4 35
-76 118 -282 325 -511 514 -1403 1096 -2275 1484 -435 195 -1007 376 -1490
475 -535 109 -870 142 -1480 146 -242 1 -460 1 -485 -1z"/>
<path d="M11345 18915 c-192 -7 -351 -13 -351 -14 -1 0 -7 -27 -13 -59 -23
-118 -111 -258 -204 -324 -24 -17 -32 -18 -57 -8 -39 16 -117 100 -140 153
-13 28 -20 65 -20 110 l0 67 -55 0 c-30 0 -101 -9 -157 -20 -57 -11 -119 -20
-139 -20 -26 0 -39 -5 -44 -17 -8 -22 -15 -17 370 -305 171 -127 331 -248 356
-270 26 -21 53 -38 60 -38 34 1 705 598 772 687 15 20 27 45 27 55 0 13 -7 18
-27 16 -16 0 -185 -7 -378 -13z"/>
<path d="M12110 18888 c0 -17 37 -60 133 -154 144 -143 160 -158 477 -439 118
-104 247 -221 288 -259 l72 -69 22 19 c13 10 93 82 178 159 86 77 215 193 288
258 73 65 132 124 132 131 0 23 -34 44 -115 70 -111 35 -190 54 -255 62 -55 6
-56 6 -110 -42 -30 -26 -83 -75 -117 -107 l-63 -59 -54 47 c-89 76 -186 220
-186 277 0 9 -5 20 -10 23 -6 4 -149 26 -318 51 -169 24 -319 47 -334 50 -24
5 -28 2 -28 -18z"/>
<path d="M9275 18560 c-3 -6 1 -7 9 -4 18 7 21 14 7 14 -6 0 -13 -4 -16 -10z"/>
<path d="M9310 18556 c0 -2 15 -9 33 -15 29 -10 30 -9 13 4 -18 14 -46 20 -46
11z"/>
<path d="M11830 18499 c-68 -56 -159 -137 -441 -394 -90 -82 -159 -164 -159
-190 0 -11 66 -71 245 -227 61 -53 134 -122 164 -154 85 -93 234 -245 260
-265 35 -28 56 -17 147 74 44 45 107 101 140 125 32 23 136 100 229 171 94 70
196 145 228 166 31 21 57 41 56 44 -1 9 -465 443 -584 547 -95 83 -197 164
-206 164 -2 0 -38 -28 -79 -61z m215 -587 c61 -29 112 -77 141 -134 33 -65 -7
-195 -86 -276 l-42 -43 -77 7 c-101 8 -186 29 -223 56 -70 50 -95 197 -48 292
57 118 202 160 335 98z"/>
<path d="M9371 18521 c-7 -5 -11 -15 -9 -22 3 -10 8 -7 17 9 13 24 12 26 -8
13z"/>
<path d="M9150 18485 c-79 -59 -96 -72 -132 -104 -21 -19 -36 -36 -33 -40 3
-3 9 -1 13 4 4 6 35 34 69 63 50 43 67 52 93 50 20 -2 34 2 36 10 1 7 0 8 -3
2 -7 -15 -33 -12 -33 3 0 8 10 19 23 25 12 6 17 11 11 11 -5 1 -25 -10 -44
-24z"/>
<path d="M9400 18500 c0 -5 5 -10 10 -10 6 0 10 5 10 10 0 6 -4 10 -10 10 -5
0 -10 -4 -10 -10z"/>
<path d="M9370 18465 c-11 -13 -10 -14 4 -9 9 3 16 10 16 15 0 13 -6 11 -20
-6z"/>
<path d="M9450 18469 c0 -5 -5 -7 -12 -3 -7 4 -8 3 -4 -4 4 -6 13 -9 21 -5 11
4 13 1 9 -11 -4 -10 -1 -16 8 -16 15 0 48 -30 48 -43 0 -4 -8 -7 -17 -8 -13 0
-14 -2 -4 -6 8 -3 20 2 26 11 11 14 14 15 25 1 7 -8 17 -15 23 -15 5 0 2 9 -8
20 -10 12 -25 18 -32 16 -7 -3 -13 1 -13 9 0 8 -12 18 -26 21 -14 4 -21 10
-15 13 6 4 3 11 -9 19 -13 8 -20 9 -20 1z"/>
<path d="M13838 18211 c-242 -206 -318 -279 -318 -307 0 -13 6 -15 28 -10 15
3 88 15 162 25 141 21 211 26 550 41 113 5 264 16 335 24 72 9 168 16 215 16
l85 1 -379 190 c-208 104 -393 196 -412 204 l-33 14 -233 -198z"/>
<path d="M9080 18391 c0 -5 7 -12 16 -15 24 -9 27 -7 10 9 -17 17 -26 19 -26
6z"/>
<path d="M9458 18373 c7 -3 16 -2 19 1 4 3 -2 6 -13 5 -11 0 -14 -3 -6 -6z"/>
<path d="M9600 18353 c0 -7 11 -20 25 -31 13 -11 21 -22 18 -26 -3 -3 -1 -6 5
-6 20 0 14 15 -18 45 -16 16 -30 24 -30 18z"/>
<path d="M8939 18304 c-19 -21 -20 -24 -5 -18 14 5 17 4 12 -5 -6 -10 -3 -10
12 0 14 9 18 17 12 25 -6 6 -7 14 -3 17 3 4 4 7 1 7 -2 0 -15 -11 -29 -26z"/>
<path d="M9022 18314 c-7 -8 -8 -14 -3 -14 10 0 25 19 20 25 -2 1 -10 -3 -17
-11z"/>
<path d="M9600 18310 c0 -5 5 -10 10 -10 6 0 10 5 10 10 0 6 -4 10 -10 10 -5
0 -10 -4 -10 -10z"/>
<path d="M8609 18303 c-8 -2 -21 -20 -29 -41 -7 -20 -15 -31 -17 -24 -3 6 -12
12 -21 13 -14 0 -13 2 3 9 19 8 19 9 -2 9 -12 1 -25 -3 -28 -9 -3 -5 -1 -10 4
-10 6 0 20 -9 30 -19 19 -19 19 -19 31 10 13 29 34 32 23 2 -4 -11 -3 -14 5
-9 16 10 15 36 0 36 -7 1 -2 10 11 20 23 20 21 22 -10 13z"/>
<path d="M8900 18262 c0 -5 7 -13 16 -16 10 -4 14 -1 12 6 -5 15 -28 23 -28
10z"/>
<path d="M9689 18268 c-1 -2 -2 -14 -3 -28 -2 -22 2 -25 34 -24 29 0 43 -8 80
-46 25 -25 63 -59 85 -75 22 -17 46 -36 53 -42 7 -7 16 -13 20 -13 4 0 -9 14
-28 31 -19 17 -66 59 -105 93 -38 33 -75 60 -82 58 -8 -2 -10 3 -7 13 3 8 2
15 -4 15 -6 0 -12 -4 -14 -10 -2 -6 -8 -6 -18 0 -13 9 -13 11 0 20 10 6 11 10
3 10 -7 0 -14 -1 -14 -2z"/>
<path d="M8472 18243 c-6 -2 -10 -9 -6 -14 7 -13 54 -11 54 2 0 6 -9 8 -21 4
-15 -5 -19 -4 -15 4 8 12 7 12 -12 4z"/>
<path d="M8847 18200 c-15 -21 -27 -42 -27 -47 0 -4 5 0 11 10 10 17 12 17 30
-4 10 -12 19 -17 19 -11 0 6 -7 18 -16 26 -8 9 -12 21 -8 27 5 8 9 8 14 -1 5
-9 9 -8 13 3 13 34 -10 32 -36 -3z"/>
<path d="M8580 18205 c-6 -8 -10 -21 -8 -31 2 -11 7 -6 15 15 13 34 11 38 -7
16z"/>
<path d="M9240 18200 c-21 -7 -21 -8 -5 -9 11 0 27 4 35 9 18 11 5 11 -30 0z"/>
<path d="M9295 18200 c3 -5 11 -10 16 -10 6 0 7 5 4 10 -3 6 -11 10 -16 10 -6
0 -7 -4 -4 -10z"/>
<path d="M9345 18201 c-3 -5 -1 -12 5 -16 5 -3 10 1 10 9 0 18 -6 21 -15 7z"/>
<path d="M8355 18180 c-3 -6 1 -7 9 -4 18 7 21 14 7 14 -6 0 -13 -4 -16 -10z"/>
<path d="M9200 18174 c0 -15 28 -31 41 -23 8 5 31 9 52 9 20 0 37 4 37 8 0 4
-25 5 -55 2 -30 -3 -55 -2 -55 2 0 4 -4 8 -10 8 -5 0 -10 -3 -10 -6z"/>
<path d="M8305 18157 c-10 -8 -14 -16 -9 -19 5 -3 17 3 27 14 20 21 9 24 -18
5z"/>
<path d="M9760 18155 c0 -8 2 -15 4 -15 2 0 6 7 10 15 3 8 1 15 -4 15 -6 0
-10 -7 -10 -15z"/>
<path d="M9335 18140 c3 -5 8 -10 11 -10 2 0 4 5 4 10 0 6 -5 10 -11 10 -5 0
-7 -4 -4 -10z"/>
<path d="M8787 18116 c-14 -21 -15 -26 -1 -36 12 -11 13 -10 8 3 -3 8 -1 25 6
36 15 29 6 26 -13 -3z"/>
<path d="M9195 18130 c-3 -5 -1 -10 4 -10 6 0 11 5 11 10 0 6 -2 10 -4 10 -3
0 -8 -4 -11 -10z"/>
<path d="M8517 18110 c7 -25 23 -37 23 -17 0 8 -6 20 -14 26 -12 10 -13 8 -9
-9z"/>
<path d="M9125 18120 c-4 -6 -2 -17 5 -25 7 -9 8 -15 0 -20 -5 -3 -10 -11 -10
-16 0 -6 7 -3 16 6 13 12 13 19 4 30 -6 8 -9 19 -5 25 3 5 4 10 1 10 -3 0 -8
-5 -11 -10z"/>
<path d="M9150 18110 c0 -5 7 -10 15 -10 8 0 15 5 15 10 0 6 -7 10 -15 10 -8
0 -15 -4 -15 -10z"/>
<path d="M8195 18100 c-3 -5 -2 -10 4 -10 5 0 13 5 16 10 3 6 2 10 -4 10 -5 0
-13 -4 -16 -10z"/>
<path d="M8490 18104 c0 -7 7 -25 15 -40 12 -24 15 -26 15 -8 0 21 -29 68 -30
48z"/>
<path d="M8225 18091 c-3 -5 -1 -12 5 -16 5 -3 10 1 10 9 0 18 -6 21 -15 7z"/>
<path d="M9840 18089 c0 -5 5 -7 10 -4 6 3 10 8 10 11 0 2 -4 4 -10 4 -5 0
-10 -5 -10 -11z"/>
<path d="M8135 18069 l-30 -19 32 3 c17 1 29 6 26 11 -3 4 1 12 8 17 8 5 10 8
4 8 -5 0 -23 -9 -40 -20z"/>
<path d="M8756 18065 c-3 -8 -1 -15 4 -15 6 0 10 -11 10 -24 0 -14 5 -28 10
-31 6 -4 8 -11 5 -16 -4 -5 -1 -9 4 -9 14 0 14 17 1 25 -6 3 -7 17 -4 30 7 29
-20 65 -30 40z"/>
<path d="M9851 18064 c-12 -14 -11 -16 4 -12 10 1 20 9 23 16 5 17 -10 15 -27
-4z"/>
<path d="M8205 18060 c27 -12 43 -12 25 0 -8 5 -22 9 -30 9 -10 0 -8 -3 5 -9z"/>
<path d="M8481 18040 c0 -29 1 -32 10 -17 7 11 7 23 0 35 -9 14 -10 11 -10
-18z"/>
<path d="M9063 18033 c13 -15 13 -22 3 -41 -7 -12 -14 -20 -17 -18 -3 3 -5 -4
-6 -15 -1 -15 5 -11 26 18 40 57 42 61 30 69 -7 4 -9 3 -5 -4 3 -6 2 -13 -4
-17 -6 -3 -13 1 -16 9 -3 9 -11 16 -17 16 -5 0 -3 -8 6 -17z"/>
<path d="M8736 18025 c-3 -8 -1 -15 4 -15 6 0 10 7 10 15 0 8 -2 15 -4 15 -2
0 -6 -7 -10 -15z"/>
<path d="M8037 18012 c-27 -18 -27 -32 0 -32 7 0 12 4 11 9 -2 5 6 17 17 25
28 22 6 20 -28 -2z"/>
<path d="M9955 18020 c-3 -5 1 -10 9 -10 9 0 16 5 16 10 0 6 -4 10 -9 10 -6 0
-13 -4 -16 -10z"/>
<path d="M9987 18013 c-12 -12 -7 -25 7 -20 7 3 20 0 27 -6 7 -7 5 -2 -5 11
-22 25 -20 24 -29 15z"/>
<path d="M9920 18002 c0 -12 19 -26 26 -19 2 2 -2 10 -11 17 -9 8 -15 8 -15 2z"/>
<path d="M8730 17980 l-25 -8 28 -1 c15 -1 27 4 27 9 0 6 -1 10 -2 9 -2 -1
-14 -5 -28 -9z"/>
<path d="M9345 17980 c-4 -6 -10 -8 -14 -5 -5 2 -13 -7 -20 -21 -6 -14 -7 -23
-2 -20 5 4 18 -5 28 -18 l19 -24 1 35 c1 31 0 32 -13 16 -10 -13 -13 -14 -14
-4 0 8 7 23 17 33 9 10 13 18 10 18 -3 0 -9 -5 -12 -10z"/>
<path d="M7984 17950 c0 -11 4 -20 8 -20 4 0 8 9 8 20 0 11 -4 20 -8 20 -4 0
-8 -9 -8 -20z"/>
<path d="M8410 17937 c4 -17 11 -39 15 -48 3 -10 2 -20 -4 -24 -6 -3 -11 -18
-10 -33 0 -24 2 -22 15 13 13 33 13 47 3 78 -16 47 -30 58 -19 14z"/>
<path d="M8460 17955 c-6 -8 -10 -19 -8 -26 2 -6 9 0 16 15 13 29 10 33 -8 11z"/>
<path d="M9000 17959 c0 -5 5 -7 10 -4 6 3 10 8 10 11 0 2 -4 4 -10 4 -5 0
-10 -5 -10 -11z"/>
<path d="M10004 17950 c1 -8 17 -25 36 -38 30 -20 35 -21 38 -8 2 9 8 13 14
10 7 -4 8 -2 4 5 -6 9 -11 9 -21 1 -10 -9 -20 -7 -39 5 -14 9 -27 22 -29 28
-2 7 -3 5 -3 -3z"/>
<path d="M10040 17956 c0 -9 5 -16 10 -16 6 0 10 4 10 9 0 6 -4 13 -10 16 -5
3 -10 -1 -10 -9z"/>
<path d="M7913 17935 c-15 -13 -23 -25 -17 -25 7 0 14 7 18 15 3 8 15 15 26
15 11 0 20 5 20 10 0 17 -17 11 -47 -15z"/>
<path d="M8704 17935 c-3 -14 -10 -25 -15 -25 -5 0 -9 -10 -9 -22 l1 -23 12
23 c7 12 15 21 18 18 2 -2 4 9 5 25 1 36 -4 37 -12 4z"/>
<path d="M9542 17956 c4 -5 2 -16 -5 -24 -10 -13 -9 -14 1 -8 7 4 19 2 27 -4
8 -7 15 -8 15 -3 0 6 -10 18 -22 29 -13 10 -20 15 -16 10z"/>
<path d="M8977 17914 c-3 -17 1 -33 10 -42 13 -13 14 -10 7 24 -9 49 -10 51
-17 18z"/>
<path d="M9017 17933 c-4 -3 -7 -13 -7 -22 1 -13 3 -13 11 2 11 19 8 33 -4 20z"/>
<path d="M7938 17923 c-10 -2 -18 -8 -18 -13 0 -4 8 -7 18 -5 9 2 20 4 25 4 4
1 7 6 7 11 0 10 -3 11 -32 3z"/>
<path d="M7880 17896 c0 -3 9 -10 20 -16 11 -6 20 -8 20 -6 0 3 -9 10 -20 16
-11 6 -20 8 -20 6z"/>
<path d="M9267 17894 c-3 -3 -3 -12 0 -20 3 -8 -2 -17 -11 -20 -9 -3 -16 -12
-16 -19 0 -7 -5 -15 -12 -17 -7 -3 -4 -7 7 -12 11 -4 16 -4 12 0 -3 4 2 19 12
33 20 28 27 73 8 55z"/>
<path d="M10118 17870 c3 -22 8 -28 24 -25 33 7 43 -7 17 -21 -17 -9 -19 -13
-8 -14 9 0 22 6 28 13 8 11 2 21 -27 44 l-38 31 4 -28z"/>
<path d="M8701 17854 c-6 -21 -9 -40 -6 -42 2 -2 8 13 14 34 6 21 9 40 6 42
-2 2 -8 -13 -14 -34z"/>
<path d="M7940 17865 c7 -8 16 -15 21 -15 5 0 6 7 3 15 -4 8 -13 15 -21 15
-13 0 -13 -3 -3 -15z"/>
<path d="M8025 17870 c4 -6 11 -8 16 -5 14 9 11 15 -7 15 -8 0 -12 -5 -9 -10z"/>
<path d="M9622 17868 c7 -20 45 -41 53 -28 4 7 -2 14 -14 17 -12 3 -21 9 -21
14 0 5 -5 9 -11 9 -6 0 -9 -5 -7 -12z"/>
<path d="M8966 17853 c3 -12 -8 -39 -31 -71 -20 -29 -33 -57 -29 -63 3 -6 22
21 42 60 27 54 33 74 25 82 -9 9 -11 7 -7 -8z"/>
<path d="M9445 17832 c-4 -25 -2 -48 5 -59 9 -15 10 -12 5 15 -4 18 -2 38 4
45 5 7 6 19 2 26 -6 9 -11 0 -16 -27z"/>
<path d="M9487 17864 c-4 -4 -7 -14 -7 -23 0 -11 3 -12 11 -4 6 6 10 16 7 23
-2 6 -7 8 -11 4z"/>
<path d="M10082 17850 c0 -14 2 -19 5 -12 2 6 2 18 0 25 -3 6 -5 1 -5 -13z"/>
<path d="M8660 17848 c0 -7 5 -20 10 -28 8 -11 9 -9 8 13 -2 26 -18 40 -18 15z"/>
<path d="M8034 17820 c44 -23 62 -27 75 -19 14 8 13 9 -4 5 -11 -3 -27 -1 -35
4 -13 9 -13 10 0 10 19 1 -59 30 -80 30 -8 0 11 -14 44 -30z"/>
<path d="M9265 17820 c-3 -5 -1 -10 4 -10 6 0 11 5 11 10 0 6 -2 10 -4 10 -3
0 -8 -4 -11 -10z"/>
<path d="M10095 17820 c-3 -5 1 -10 10 -10 9 0 13 5 10 10 -3 6 -8 10 -10 10
-2 0 -7 -4 -10 -10z"/>
<path d="M10200 17820 c0 -5 5 -10 11 -10 5 0 7 5 4 10 -3 6 -8 10 -11 10 -2
0 -4 -4 -4 -10z"/>
<path d="M8163 17790 c22 -12 37 -24 34 -27 -3 -2 -15 0 -26 7 -12 6 -21 7
-21 2 0 -16 40 -21 66 -10 13 6 24 15 24 20 0 8 -5 10 -50 13 -14 1 -34 5 -45
9 -11 4 -3 -2 18 -14z m57 -10 c0 -5 -4 -10 -9 -10 -6 0 -13 5 -16 10 -3 6 1
10 9 10 9 0 16 -4 16 -10z"/>
<path d="M8888 17778 c3 -21 7 -26 13 -17 13 20 11 36 -4 42 -10 4 -12 -3 -9
-25z"/>
<path d="M9707 17803 c-8 -7 31 -53 45 -53 18 0 6 21 -18 30 -14 6 -22 14 -19
20 7 11 2 13 -8 3z"/>
<path d="M9745 17800 c3 -5 8 -10 11 -10 2 0 4 5 4 10 0 6 -5 10 -11 10 -5 0
-7 -4 -4 -10z"/>
<path d="M9210 17785 c-10 -12 -10 -15 4 -15 9 0 16 7 16 15 0 8 -2 15 -4 15
-2 0 -9 -7 -16 -15z"/>
<path d="M9272 17775 c0 -16 2 -22 5 -12 2 9 2 23 0 30 -3 6 -5 -1 -5 -18z"/>
<path d="M8118 17783 c7 -3 16 -2 19 1 4 3 -2 6 -13 5 -11 0 -14 -3 -6 -6z"/>
<path d="M8401 17774 c0 -11 3 -14 6 -6 3 7 2 16 -1 19 -3 4 -6 -2 -5 -13z"/>
<path d="M10244 17763 c-1 -13 1 -21 5 -16 3 4 10 10 14 14 4 3 2 11 -5 17
-10 8 -13 5 -14 -15z"/>
<path d="M8628 17765 c-3 -11 -9 -29 -13 -40 -3 -11 1 -7 10 8 9 16 15 33 12
40 -2 6 -6 3 -9 -8z"/>
<path d="M10270 17740 c-12 -7 -10 -9 7 -7 12 0 19 5 17 9 -6 10 -6 10 -24 -2z"/>
<path d="M9178 17735 c-4 -4 -4 -13 -1 -21 3 -8 0 -14 -6 -14 -6 0 -11 -8 -11
-17 0 -14 3 -13 16 5 15 21 17 62 2 47z"/>
<path d="M8260 17718 c13 -5 35 -5 49 0 22 7 18 9 -23 9 -39 0 -44 -2 -26 -9z"/>
<path d="M9375 17720 c3 -5 8 -10 11 -10 2 0 4 5 4 10 0 6 -5 10 -11 10 -5 0
-7 -4 -4 -10z"/>
<path d="M9775 17720 c3 -5 8 -10 11 -10 2 0 4 5 4 10 0 6 -5 10 -11 10 -5 0
-7 -4 -4 -10z"/>
<path d="M9805 17719 c-4 -6 2 -19 14 -30 12 -11 21 -15 21 -9 0 6 -7 13 -15
16 -8 4 -12 10 -9 15 3 5 10 6 16 3 7 -4 8 -2 4 4 -9 15 -23 15 -31 1z"/>
<path d="M8326 17707 c-16 -12 -14 -14 17 -29 33 -16 35 -16 40 2 4 17 1 18
-27 13 -34 -6 -27 11 9 20 20 5 19 5 -1 6 -11 0 -28 -5 -38 -12z"/>
<path d="M8886 17695 c-3 -9 -6 -22 -5 -28 0 -7 5 -1 10 12 5 13 8 26 5 28 -2
2 -6 -3 -10 -12z"/>
<path d="M10320 17701 c0 -6 5 -11 11 -11 6 0 8 -9 4 -20 -4 -11 -2 -20 4 -20
6 0 11 5 11 11 0 8 5 8 15 -1 8 -7 15 -9 14 -4 0 13 -59 57 -59 45z"/>
<path d="M7490 17675 c-19 -14 -29 -25 -23 -25 5 0 20 9 33 20 13 12 29 19 34
17 6 -2 22 -7 36 -11 l25 -7 -25 15 c-34 21 -41 20 -80 -9z"/>
<path d="M9376 17671 c-11 -17 2 -31 21 -24 13 5 15 3 9 -13 -5 -10 -12 -32
-17 -48 -11 -38 4 -22 21 22 12 30 11 35 -7 54 -14 13 -23 16 -27 9z"/>
<path d="M7530 17660 c0 -5 12 -10 28 -9 24 0 25 1 7 9 -27 12 -35 12 -35 0z"/>
<path d="M8592 17645 c0 -16 2 -22 5 -12 2 9 2 23 0 30 -3 6 -5 -1 -5 -18z"/>
<path d="M8622 17650 c0 -14 2 -19 5 -12 2 6 2 18 0 25 -3 6 -5 1 -5 -13z"/>
<path d="M9175 17661 c-3 -5 -1 -12 5 -16 5 -3 10 1 10 9 0 18 -6 21 -15 7z"/>
<path d="M9134 17628 c-14 -28 -15 -31 -2 -20 14 11 31 52 22 52 -2 0 -11 -15
-20 -32z"/>
<path d="M9870 17639 c0 -5 5 -7 10 -4 6 3 10 8 10 11 0 2 -4 4 -10 4 -5 0
-10 -5 -10 -11z"/>
<path d="M9905 17630 c3 -5 1 -10 -6 -10 -9 0 -9 -3 0 -14 13 -16 54 -29 45
-15 -3 5 -12 9 -20 9 -11 0 -13 6 -9 20 4 12 2 20 -5 20 -6 0 -8 -4 -5 -10z"/>
<path d="M7384 17600 c-34 -24 -41 -34 -37 -55 3 -14 8 -25 10 -25 3 0 3 11 1
25 -3 14 -1 25 4 25 5 0 14 5 21 10 7 6 23 19 36 30 37 30 11 23 -35 -10z"/>
<path d="M7688 17623 c7 -3 16 -2 19 1 4 3 -2 6 -13 5 -11 0 -14 -3 -6 -6z"/>
<path d="M8802 17605 c0 -16 2 -22 5 -12 2 9 2 23 0 30 -3 6 -5 -1 -5 -18z"/>
<path d="M8849 17626 c0 -1 -2 -19 -4 -41 -1 -22 -6 -53 -9 -70 -4 -16 1 -7
10 20 9 28 20 58 25 67 5 10 9 19 9 21 0 3 -28 6 -31 3z"/>
<path d="M9177 17617 c-3 -8 1 -21 9 -27 15 -13 17 -6 5 24 -6 17 -8 17 -14 3z"/>
<path d="M10403 17618 c2 -7 8 -13 13 -13 18 0 34 -17 28 -27 -5 -7 -2 -8 5
-3 9 5 7 13 -10 31 -24 26 -43 32 -36 12z"/>
<path d="M7721 17616 c8 -9 99 -45 99 -40 0 2 -21 14 -46 24 -45 20 -62 24
-53 16z"/>
<path d="M9361 17604 c0 -11 3 -14 6 -6 3 7 2 16 -1 19 -3 4 -6 -2 -5 -13z"/>
<path d="M8600 17592 c0 -15 -4 -20 -16 -15 -13 5 -14 2 -2 -28 8 -18 19 -34
26 -37 18 -6 26 46 11 65 -8 9 -12 18 -11 20 2 3 1 7 -2 11 -3 3 -6 -4 -6 -16z
m20 -42 c0 -11 -4 -20 -9 -20 -11 0 -22 26 -14 34 12 12 23 5 23 -14z"/>
<path d="M7712 17588 c3 -7 18 -14 34 -16 28 -2 28 -2 10 13 -24 18 -49 20
-44 3z"/>
<path d="M9112 17565 c0 -16 2 -22 5 -12 2 9 2 23 0 30 -3 6 -5 -1 -5 -18z"/>
<path d="M9950 17566 c0 -2 8 -10 18 -17 15 -13 16 -12 3 4 -13 16 -21 21 -21
13z"/>
<path d="M9998 17563 c7 -3 16 -2 19 1 4 3 -2 6 -13 5 -11 0 -14 -3 -6 -6z"/>
<path d="M10040 17565 c0 -2 10 -10 23 -16 20 -11 21 -11 8 4 -13 16 -31 23
-31 12z"/>
<path d="M7305 17540 c-3 -5 -2 -10 4 -10 5 0 13 5 16 10 3 6 2 10 -4 10 -5 0
-13 -4 -16 -10z"/>
<path d="M7878 17543 c7 -3 16 -2 19 1 4 3 -2 6 -13 5 -11 0 -14 -3 -6 -6z"/>
<path d="M9366 17504 c-3 -26 -4 -49 -2 -52 3 -2 8 17 11 43 4 25 5 48 3 51
-3 2 -8 -17 -12 -42z"/>
<path d="M8801 17524 c0 -11 3 -14 6 -6 3 7 2 16 -1 19 -3 4 -6 -2 -5 -13z"/>
<path d="M9999 17535 c-4 -3 7 -19 23 -36 39 -39 46 -32 10 10 -15 18 -30 30
-33 26z"/>
<path d="M7850 17525 c0 -2 15 -9 33 -14 l32 -9 -29 -1 c-16 -1 -27 -4 -23 -7
3 -4 23 -3 44 1 l38 7 -25 14 c-24 13 -70 19 -70 9z"/>
<path d="M9081 17483 c-30 -118 -31 -129 -23 -168 l9 -40 1 55 c1 49 18 135
37 183 4 9 3 17 -2 17 -5 0 -15 -21 -22 -47z"/>
<path d="M9704 17516 c-10 -8 -17 -17 -14 -19 3 -3 16 3 29 14 27 22 15 26
-15 5z"/>
<path d="M7258 17503 c-8 -10 -8 -14 -1 -10 6 4 13 1 15 -7 2 -11 6 -11 14 -2
8 8 7 15 -2 23 -9 9 -15 8 -26 -4z"/>
<path d="M7315 17510 c3 -5 10 -10 16 -10 5 0 9 5 9 10 0 6 -7 10 -16 10 -8 0
-12 -4 -9 -10z"/>
<path d="M10520 17510 c0 -5 5 -10 10 -10 6 0 10 5 10 10 0 6 -4 10 -10 10 -5
0 -10 -4 -10 -10z"/>
<path d="M7965 17500 c-3 -5 -1 -10 4 -10 6 0 11 5 11 10 0 6 -2 10 -4 10 -3
0 -8 -4 -11 -10z"/>
<path d="M9740 17500 c0 -5 7 -10 16 -10 9 0 12 -5 8 -12 -4 -7 -3 -8 4 -4 16
10 15 14 -8 26 -14 7 -20 7 -20 0z"/>
<path d="M8625 17493 c17 -15 67 -34 60 -23 -3 5 -1 10 5 10 7 0 14 -9 17 -20
5 -20 15 -25 26 -14 10 10 -35 45 -50 40 -7 -3 -26 -1 -41 5 -15 6 -22 6 -17
2z"/>
<path d="M7220 17475 c-8 -9 -8 -15 -2 -15 12 0 26 19 19 26 -2 2 -10 -2 -17
-11z"/>
<path d="M8785 17471 c-3 -5 -1 -12 5 -16 5 -3 10 1 10 9 0 18 -6 21 -15 7z"/>
<path d="M8817 17473 c-2 -4 -7 -21 -11 -38 -4 -16 -12 -33 -18 -36 -7 -4 -7
-9 0 -13 10 -6 46 83 38 91 -2 3 -6 1 -9 -4z"/>
<path d="M8088 17459 c17 -5 32 -14 32 -20 0 -6 7 -8 17 -5 9 4 19 3 22 -2 3
-5 20 -12 36 -16 47 -12 18 9 -48 33 -32 11 -65 21 -75 20 -9 0 -2 -5 16 -10z"/>
<path d="M10115 17460 c-3 -5 -1 -10 4 -10 6 0 11 5 11 10 0 6 -2 10 -4 10 -3
0 -8 -4 -11 -10z"/>
<path d="M10591 17452 c10 -17 69 -56 74 -50 1 2 -18 18 -41 35 -26 19 -39 25
-33 15z"/>
<path d="M9794 17436 c0 -13 6 -22 12 -19 13 5 84 -53 84 -68 0 -14 -38 -11
-43 4 -4 9 -6 9 -6 -1 -1 -18 26 -26 50 -16 19 9 18 11 -16 52 -20 23 -40 40
-45 37 -4 -3 -10 4 -13 15 -7 28 -25 25 -23 -4z"/>
<path d="M7160 17430 c-13 -11 -18 -20 -13 -20 15 0 61 39 47 40 -6 0 -21 -9
-34 -20z"/>
<path d="M7218 17434 c-33 -17 -34 -21 -11 -21 17 0 49 24 42 32 -2 2 -16 -3
-31 -11z"/>
<path d="M10071 17448 c2 -2 26 -23 53 -48 27 -25 46 -39 42 -32 -9 15 30 17
39 2 4 -6 11 -8 16 -4 16 10 -11 34 -37 34 -13 0 -24 -5 -24 -11 0 -7 -15 5
-34 25 -19 20 -40 36 -47 36 -7 0 -10 -1 -8 -2z"/>
<path d="M9101 17433 c-1 -6 -4 -20 -7 -30 -5 -17 -5 -17 6 0 6 10 9 23 6 30
-3 9 -5 9 -5 0z"/>
<path d="M10151 17424 c0 -11 3 -14 6 -6 3 7 2 16 -1 19 -3 4 -6 -2 -5 -13z"/>
<path d="M8080 17420 c0 -5 7 -7 15 -4 8 4 15 8 15 10 0 2 -7 4 -15 4 -8 0
-15 -4 -15 -10z"/>
<path d="M7459 17390 l24 -20 -30 -28 c-17 -15 -46 -37 -64 -49 -19 -13 -29
-23 -24 -23 6 0 46 27 90 60 61 45 88 60 114 60 47 0 30 13 -18 14 -24 1 -37
-3 -34 -10 5 -14 -24 -27 -32 -14 -3 6 -16 15 -28 21 -21 9 -21 9 2 -11z"/>
<path d="M7658 17403 c7 -3 16 -2 19 1 4 3 -2 6 -13 5 -11 0 -14 -3 -6 -6z"/>
<path d="M7723 17403 c-13 -2 -23 -8 -23 -13 0 -4 10 -10 23 -14 33 -9 44 -7
27 4 -13 9 -13 11 0 20 15 10 11 10 -27 3z"/>
<path d="M9657 17373 c-2 -21 -1 -45 4 -53 5 -10 9 4 9 38 0 61 -6 68 -13 15z"/>
<path d="M7079 17370 c-24 -21 -29 -29 -17 -30 9 0 18 6 21 13 3 9 7 9 20 -2
10 -7 17 -9 17 -3 0 6 -6 13 -12 15 -10 4 -9 8 2 16 8 5 12 12 9 15 -3 3 -21
-8 -40 -24z"/>
<path d="M7670 17369 c30 -11 59 -18 65 -16 10 4 -95 38 -112 36 -4 0 17 -9
47 -20z"/>
<path d="M8253 17379 c14 -8 22 -8 30 0 8 8 3 11 -18 11 -26 -1 -28 -2 -12
-11z"/>
<path d="M10675 17380 c3 -5 11 -10 16 -10 6 0 7 5 4 10 -3 6 -11 10 -16 10
-6 0 -7 -4 -4 -10z"/>
<path d="M14780 17383 c-427 -25 -806 -101 -1139 -230 -126 -48 -141 -57 -141
-84 0 -18 12 -30 165 -150 50 -38 97 -79 106 -91 16 -20 16 -20 110 15 206 77
497 147 739 179 162 20 621 18 790 -5 506 -68 956 -227 1395 -492 163 -98 195
-122 435 -322 278 -231 536 -516 702 -773 65 -101 192 -312 235 -390 121 -219
290 -594 379 -838 25 -70 65 -182 90 -249 98 -273 164 -558 238 -1028 82 -520
102 -850 87 -1439 -13 -488 -30 -683 -96 -1084 -121 -740 -333 -1403 -691
-2167 -70 -149 -232 -440 -377 -675 -367 -597 -965 -1294 -1446 -1686 -74 -60
-157 -128 -185 -151 -192 -157 -269 -217 -409 -316 -534 -379 -1185 -724
-1767 -935 -271 -98 -318 -113 -634 -198 -668 -180 -1099 -240 -1801 -251
-578 -9 -983 30 -1585 153 -389 80 -844 216 -1210 362 -581 232 -1146 540
-1630 890 -308 223 -337 248 -860 733 -248 231 -492 491 -636 679 -32 41 -78
102 -104 135 -673 871 -1153 1930 -1369 3025 -90 457 -123 773 -137 1330 -7
285 3 547 32 865 l16 170 -71 320 c-39 176 -84 380 -101 454 -16 73 -30 141
-30 151 0 27 -18 34 -43 17 -19 -12 -28 -45 -65 -243 -59 -310 -86 -507 -117
-844 -92 -1018 3 -1992 291 -2980 97 -331 247 -735 372 -1000 27 -58 73 -155
101 -217 101 -217 337 -633 483 -851 401 -599 812 -1082 1271 -1495 418 -376
823 -677 1297 -962 146 -88 842 -438 1022 -514 202 -85 562 -211 843 -295 485
-144 985 -233 1605 -284 l84 -7 -244 -54 c-927 -203 -1566 -270 -2442 -258
-788 11 -1473 101 -2208 289 -1197 306 -2296 874 -2991 1546 l-110 105 -83
-79 c-46 -43 -84 -83 -85 -89 -1 -15 265 -258 420 -382 347 -280 690 -497
1149 -727 969 -486 2057 -777 3295 -881 259 -22 988 -31 1278 -16 644 34 1130
103 1872 266 992 218 1746 307 2745 322 1559 23 3200 -203 4770 -657 739 -213
1478 -486 2118 -782 84 -39 155 -69 157 -66 8 7 95 197 95 206 0 10 -46 33
-285 140 -1581 707 -3439 1181 -5265 1341 -393 35 -753 53 -1193 60 l-428 6
139 42 c854 258 1707 690 2422 1227 576 432 951 789 1440 1371 394 468 841
1209 1111 1840 95 223 225 565 257 677 5 18 30 98 55 178 233 746 357 1605
357 2469 -1 665 -73 1263 -231 1901 -116 469 -320 1023 -519 1405 -259 497
-385 701 -457 735 -17 8 -39 29 -49 45 -97 167 -208 310 -353 454 -425 425
-979 757 -1566 940 -367 114 -663 166 -1080 191 -164 9 -217 10 -335 3z"/>
<path d="M8329 17364 c19 -8 36 -12 39 -9 5 5 -43 25 -61 25 -7 -1 3 -7 22
-16z"/>
<path d="M9088 17358 c-4 -10 -3 -20 2 -23 12 -8 13 -105 2 -105 -16 0 -7 -90
11 -107 19 -20 24 -1 4 19 -12 13 -15 60 -4 88 9 24 16 137 7 115 -7 -19 -8
-18 -11 5 -3 20 -5 22 -11 8z"/>
<path d="M10190 17339 c12 -22 42 -23 46 -1 1 7 0 8 -3 2 -7 -16 -33 -12 -33
5 0 8 -5 15 -10 15 -7 0 -7 -7 0 -21z"/>
<path d="M10649 17343 c-13 -15 -12 -15 9 -4 23 12 28 21 13 21 -5 0 -15 -7
-22 -17z"/>
<path d="M10701 17350 c-10 -6 -10 -9 -1 -15 6 -4 14 -4 17 -1 3 3 14 1 24 -5
27 -14 24 -4 -4 14 -14 9 -29 12 -36 7z"/>
<path d="M8310 17340 c-8 -5 -10 -10 -5 -10 6 0 17 5 25 10 8 5 11 10 5 10 -5
0 -17 -5 -25 -10z"/>
<path d="M8375 17340 c-3 -6 1 -7 9 -4 18 7 21 14 7 14 -6 0 -13 -4 -16 -10z"/>
<path d="M9323 17334 c-7 -7 -12 -30 -12 -51 1 -21 3 -29 6 -18 15 71 15 71
23 50 6 -13 9 -15 9 -5 1 27 -13 39 -26 24z"/>
<path d="M6935 17263 c-55 -41 -95 -73 -90 -71 6 3 25 11 43 18 17 8 32 20 32
27 0 7 11 15 24 19 19 4 111 85 96 83 -3 0 -50 -34 -105 -76z"/>
<path d="M8418 17329 c10 -13 9 -19 -3 -29 -8 -7 -15 -20 -14 -29 0 -10 4 -8
10 8 8 19 15 23 44 19 19 -2 35 0 35 4 0 4 -7 8 -15 8 -9 0 -28 8 -43 17 -23
15 -25 15 -14 2z"/>
<path d="M9931 17320 c7 -14 16 -43 20 -65 l6 -40 2 40 c0 27 -6 48 -20 65
l-20 25 12 -25z"/>
<path d="M7388 17323 c7 -3 16 -2 19 1 4 3 -2 6 -13 5 -11 0 -14 -3 -6 -6z"/>
<path d="M7822 17315 c27 -12 42 -14 55 -6 15 9 14 10 -12 9 -16 0 -41 3 -55
6 -14 4 -8 0 12 -9z"/>
<path d="M7360 17310 c0 -5 5 -10 11 -10 5 0 7 5 4 10 -3 6 -8 10 -11 10 -2 0
-4 -4 -4 -10z"/>
<path d="M7982 17308 c-7 -7 -12 -16 -12 -21 0 -5 7 -1 16 8 9 9 14 18 12 20
-2 3 -10 -1 -16 -7z"/>
<path d="M10235 17311 c-3 -5 -2 -12 3 -15 5 -3 9 1 9 9 0 17 -3 19 -12 6z"/>
<path d="M10300 17305 c7 -9 15 -13 17 -11 7 7 -7 26 -19 26 -6 0 -6 -6 2 -15z"/>
<path d="M7917 17294 c3 -7 1 -14 -5 -14 -6 0 -12 6 -15 13 -2 6 -8 8 -13 4
-10 -10 14 -27 39 -27 21 0 23 26 3 33 -10 4 -13 1 -9 -9z"/>
<path d="M10755 17301 c-6 -11 9 -23 19 -14 9 9 7 23 -3 23 -6 0 -12 -4 -16
-9z"/>
<path d="M7016 17284 c-11 -8 -16 -14 -10 -14 13 0 39 18 34 24 -3 2 -14 -2
-24 -10z"/>
<path d="M9672 17270 c0 -14 2 -19 5 -12 2 6 2 18 0 25 -3 6 -5 1 -5 -13z"/>
<path d="M10273 17282 c-9 -6 -3 -18 22 -42 19 -19 35 -30 35 -26 0 5 -12 19
-26 32 -14 13 -22 29 -19 34 7 12 4 12 -12 2z"/>
<path d="M10720 17281 c0 -10 19 -25 25 -20 1 2 -3 10 -11 17 -8 7 -14 8 -14
3z"/>
<path d="M8460 17271 c0 -5 7 -12 16 -15 24 -9 27 -7 10 9 -17 17 -26 19 -26
6z"/>
<path d="M8516 17271 c-3 -5 3 -11 14 -14 13 -3 18 -1 14 5 -7 10 6 9 63 -7
10 -3 5 1 -12 9 -34 17 -71 20 -79 7z"/>
<path d="M9294 17165 c0 -66 1 -92 3 -57 2 34 2 88 0 120 -2 31 -3 3 -3 -63z"/>
<path d="M9643 17183 l-1 -98 8 79 c4 44 5 88 1 99 -4 10 -7 -26 -8 -80z"/>
<path d="M10812 17275 c4 -4 3 -14 -4 -22 -8 -11 -7 -12 6 -7 19 7 21 20 4 30
-7 4 -10 4 -6 -1z"/>
<path d="M7950 17264 c0 -2 9 -8 20 -14 15 -8 18 -8 14 3 -4 11 -34 21 -34 11z"/>
<path d="M6951 17239 c0 -9 -11 -24 -23 -32 -13 -9 -18 -16 -13 -16 21 -1 47
28 42 46 -4 14 -5 15 -6 2z"/>
<path d="M7265 17243 c-35 -9 -41 -23 -10 -23 l29 0 -24 -17 c-14 -9 -29 -23
-33 -30 -4 -7 -18 -11 -30 -10 -12 2 -16 2 -9 0 7 -3 9 -9 6 -15 -9 -15 5 -5
84 54 36 26 60 48 54 48 -6 0 -17 -7 -26 -15 -8 -8 -18 -15 -21 -15 -4 0 -5 7
-1 15 3 8 4 14 3 14 -1 -1 -11 -3 -22 -6z"/>
<path d="M8064 17234 c4 -12 2 -15 -9 -10 -53 21 -51 21 -33 3 9 -9 23 -17 32
-17 8 0 18 -4 21 -10 3 -5 14 -10 23 -9 13 0 11 3 -5 9 -15 6 -21 15 -18 30 2
11 -1 20 -7 20 -5 0 -7 -7 -4 -16z"/>
<path d="M9062 17220 c0 -19 2 -27 5 -17 2 9 2 25 0 35 -3 9 -5 1 -5 -18z"/>
<path d="M9332 17230 c0 -14 2 -19 5 -12 2 6 2 18 0 25 -3 6 -5 1 -5 -13z"/>
<path d="M10367 17226 c-15 -12 -25 -25 -21 -28 3 -4 17 4 31 18 32 32 26 39
-10 10z"/>
<path d="M10840 17235 c0 -8 7 -15 16 -15 14 0 14 3 4 15 -7 8 -14 15 -16 15
-2 0 -4 -7 -4 -15z"/>
<path d="M8670 17220 c20 -13 33 -13 25 0 -3 6 -14 10 -23 10 -15 0 -15 -2 -2
-10z"/>
<path d="M8640 17212 c0 -7 5 -12 11 -12 8 0 7 -6 -2 -17 -12 -15 -12 -16 4
-10 10 4 25 7 33 7 8 0 14 5 14 10 0 6 -8 10 -18 10 -10 0 -23 5 -30 12 -9 9
-12 9 -12 0z"/>
<path d="M10880 17213 c1 -9 50 -47 54 -41 2 1 -10 13 -25 26 -16 13 -29 20
-29 15z"/>
<path d="M7200 17199 c0 -5 5 -7 10 -4 6 3 10 8 10 11 0 2 -4 4 -10 4 -5 0
-10 -5 -10 -11z"/>
<path d="M8710 17206 c0 -2 7 -6 15 -10 8 -3 15 -1 15 4 0 6 -7 10 -15 10 -8
0 -15 -2 -15 -4z"/>
<path d="M9936 17195 c-3 -9 -5 -31 -5 -48 1 -27 3 -24 9 13 8 48 6 61 -4 35z"/>
<path d="M10820 17201 c0 -5 7 -12 16 -15 24 -9 28 -7 14 9 -14 17 -30 20 -30
6z"/>
<path d="M9112 17180 c0 -14 2 -19 5 -12 2 6 2 18 0 25 -3 6 -5 1 -5 -13z"/>
<path d="M8750 17186 c0 -2 7 -6 15 -10 8 -3 15 -1 15 4 0 6 -7 10 -15 10 -8
0 -15 -2 -15 -4z"/>
<path d="M9312 17170 c0 -14 2 -19 5 -12 2 6 2 18 0 25 -3 6 -5 1 -5 -13z"/>
<path d="M9666 17175 c-3 -9 -5 -33 -5 -53 2 -33 2 -32 9 13 8 53 6 66 -4 40z"/>
<path d="M10370 17182 c0 -5 9 -17 20 -27 11 -10 20 -15 20 -12 0 4 -9 16 -20
27 -11 11 -20 16 -20 12z"/>
<path d="M8731 17153 c7 -20 6 -28 -3 -35 -10 -6 -9 -8 3 -8 15 0 49 30 49 43
0 15 -19 6 -23 -10 -3 -14 -6 -11 -11 10 -5 15 -12 27 -17 27 -5 0 -4 -12 2
-27z"/>
<path d="M7140 17155 c0 -8 4 -15 10 -15 5 0 7 7 4 15 -4 8 -8 15 -10 15 -2 0
-4 -7 -4 -15z"/>
<path d="M8150 17163 c0 -1 19 -11 43 -22 58 -27 113 -36 122 -21 5 9 1 10
-14 5 -11 -3 -29 -2 -38 4 -16 9 -15 10 8 11 15 0 31 6 37 13 8 9 2 12 -23 13
-20 0 -31 -4 -28 -9 4 -6 0 -8 -10 -4 -11 4 -14 2 -10 -9 5 -12 1 -13 -21 -3
-16 8 -22 15 -15 19 6 4 -3 7 -20 6 -17 -1 -31 -2 -31 -3z"/>
<path d="M10420 17166 c0 -2 9 -6 20 -9 11 -3 20 -1 20 4 0 5 -9 9 -20 9 -11
0 -20 -2 -20 -4z"/>
<path d="M12561 17110 c-89 -76 -245 -244 -320 -344 -157 -210 -241 -433 -241
-645 0 -266 68 -455 275 -766 197 -297 239 -428 190 -603 -21 -75 -16 -95 22
-86 72 17 164 168 184 304 18 117 -2 273 -48 385 -9 22 -60 132 -114 245 -111
230 -127 282 -136 425 -13 223 76 459 243 647 57 64 58 64 116 27 315 -201
560 -492 689 -815 79 -200 108 -451 75 -641 -36 -210 -113 -376 -248 -538 -43
-51 -82 -105 -88 -119 -8 -23 -7 -26 13 -26 41 0 183 56 243 95 209 138 388
434 438 724 51 301 -32 678 -215 974 -84 135 -172 239 -317 374 -190 177 -369
296 -615 407 l-77 36 -69 -60z"/>
<path d="M6760 17125 c-13 -14 -20 -28 -16 -32 4 -5 14 1 21 12 8 11 19 26 25
33 20 23 -7 12 -30 -13z"/>
<path d="M10979 17127 c24 -26 17 -39 -7 -15 -8 8 -12 8 -12 1 0 -15 29 -25
44 -16 9 6 4 15 -18 32 l-31 25 24 -27z"/>
<path d="M7571 17115 l-34 -24 43 4 c23 2 45 7 49 11 3 4 -7 4 -24 0 -28 -7
-29 -6 -13 10 15 16 19 15 63 -6 25 -12 48 -20 51 -17 5 5 -80 47 -93 47 -5
-1 -23 -12 -42 -25z"/>
<path d="M7121 17111 c0 -11 2 -12 6 -3 2 6 9 10 14 7 5 -4 16 -2 25 3 12 6 8
9 -15 9 -22 0 -31 -5 -30 -16z"/>
<path d="M9331 17090 c1 -42 1 -43 9 -16 6 17 5 36 0 45 -7 11 -9 3 -9 -29z"/>
<path d="M10469 17078 c28 -28 54 -49 57 -46 3 3 -3 13 -12 23 -15 14 -15 18
-3 27 10 7 9 8 -7 4 -14 -4 -28 2 -44 19 -13 14 -28 25 -33 25 -5 0 13 -23 42
-52z"/>
<path d="M6786 17103 c-6 -14 -5 -15 5 -6 7 7 10 15 7 18 -3 3 -9 -2 -12 -12z"/>
<path d="M8358 17083 c7 -3 16 -2 19 1 4 3 -2 6 -13 5 -11 0 -14 -3 -6 -6z"/>
<path d="M8415 17079 c-20 -5 -9 -6 30 -2 33 3 62 7 64 9 8 7 -63 2 -94 -7z"/>
<path d="M8568 17083 c7 -3 16 -2 19 1 4 3 -2 6 -13 5 -11 0 -14 -3 -6 -6z"/>
<path d="M8625 17075 c-32 -10 -35 -13 -15 -14 14 0 39 6 55 14 38 17 12 18
-40 0z"/>
<path d="M9148 17083 c6 -2 9 -10 6 -15 -4 -7 -2 -8 4 -4 18 11 14 26 -5 25
-11 0 -13 -3 -5 -6z"/>
<path d="M10540 17080 c-9 -6 -11 -10 -3 -10 7 0 10 -7 6 -17 -4 -10 -2 -14 5
-9 6 3 10 15 9 26 -1 11 -1 20 -2 20 0 0 -7 -5 -15 -10z"/>
<path d="M7076 17063 c-6 -14 -5 -15 5 -6 7 7 10 15 7 18 -3 3 -9 -2 -12 -12z"/>
<path d="M7707 17073 c-13 -12 -7 -25 9 -19 9 4 23 1 30 -5 11 -9 14 -9 14 0
0 9 5 9 21 1 11 -7 23 -10 25 -7 3 2 -8 9 -23 15 -47 18 -69 23 -76 15z"/>
<path d="M9671 17064 c0 -11 3 -14 6 -6 3 7 2 16 -1 19 -3 4 -6 -2 -5 -13z"/>
<path d="M11040 17072 c0 -6 6 -13 13 -16 10 -5 10 -7 0 -12 -7 -3 -13 -10
-13 -16 0 -6 6 -5 15 2 9 7 19 10 22 6 4 -4 1 -12 -7 -17 -12 -9 -12 -10 3 -5
10 3 23 6 28 6 15 0 2 16 -31 40 -17 12 -30 17 -30 12z"/>
<path d="M6700 17055 c7 -9 15 -13 17 -11 7 7 -7 26 -19 26 -6 0 -6 -6 2 -15z"/>
<path d="M8458 17063 c7 -3 16 -2 19 1 4 3 -2 6 -13 5 -11 0 -14 -3 -6 -6z"/>
<path d="M8515 17060 c28 -12 55 -12 55 0 0 6 -17 10 -37 9 -31 0 -34 -2 -18
-9z"/>
<path d="M9176 17052 c-3 -6 -1 -14 5 -17 15 -10 25 3 12 16 -7 7 -13 7 -17 1z"/>
<path d="M9645 17035 c4 -16 11 -46 15 -65 8 -35 8 -35 9 10 0 27 -6 53 -16
65 -15 19 -15 19 -8 -10z"/>
<path d="M6660 17039 c0 -5 5 -7 10 -4 6 3 10 8 10 11 0 2 -4 4 -10 4 -5 0
-10 -5 -10 -11z"/>
<path d="M7506 17027 c3 -10 9 -15 12 -12 3 3 0 11 -7 18 -10 9 -11 8 -5 -6z"/>
<path d="M6629 17012 c-11 -14 -11 -15 0 -5 7 6 20 9 27 6 8 -3 14 -3 14 0 0
14 -30 14 -41 -1z"/>
<path d="M6690 17026 c0 -2 7 -7 16 -10 8 -3 12 -2 9 4 -6 10 -25 14 -25 6z"/>
<path d="M7460 17020 c0 -5 7 -10 16 -10 8 0 12 5 9 10 -3 6 -10 10 -16 10 -5
0 -9 -4 -9 -10z"/>
<path d="M7849 17021 c11 -7 11 -9 0 -13 -8 -3 -11 -9 -7 -13 4 -4 14 -1 22 8
14 13 14 16 0 21 -23 9 -31 7 -15 -3z"/>
<path d="M3993 17013 c-18 -2 -37 -12 -42 -21 -26 -49 -81 -343 -108 -585 -28
-243 -25 -851 5 -1142 81 -788 273 -1638 571 -2535 35 -104 217 -586 276 -730
76 -186 224 -500 337 -715 344 -652 711 -1169 1150 -1619 l174 -179 50 5 c52
5 174 72 174 95 0 7 4 13 8 13 16 0 189 104 272 163 111 80 259 229 340 345
35 50 70 92 76 92 19 0 103 152 139 252 87 245 119 587 68 738 -23 68 -43 83
-216 151 -299 117 -533 257 -877 523 -428 331 -799 735 -1124 1226 -150 225
-186 285 -311 515 -91 167 -120 224 -250 500 -84 179 -216 523 -305 800 -192
593 -321 1313 -348 1944 -4 96 -11 165 -17 166 -5 1 -25 0 -42 -2z"/>
<path d="M7428 17003 c-9 -10 -41 -36 -72 -58 -51 -37 -71 -65 -46 -65 6 0 10
7 10 15 0 9 6 12 18 9 13 -5 14 -4 3 4 -10 7 -3 17 32 41 25 17 50 31 55 31 5
0 12 9 15 20 6 24 6 24 -15 3z"/>
<path d="M7718 17013 c7 -3 16 -2 19 1 4 3 -2 6 -13 5 -11 0 -14 -3 -6 -6z"/>
<path d="M9195 17010 c3 -6 12 -10 20 -10 7 0 16 -5 18 -10 3 -6 4 -5 3 1 -1
7 -12 16 -25 20 -14 6 -20 5 -16 -1z"/>
<path d="M10530 17016 c0 -2 7 -7 16 -10 8 -3 12 -2 9 4 -6 10 -25 14 -25 6z"/>
<path d="M11120 17010 c0 -5 5 -10 11 -10 5 0 7 5 4 10 -3 6 -8 10 -11 10 -2
0 -4 -4 -4 -10z"/>
<path d="M6890 16995 c-7 -9 -10 -18 -6 -22 3 -3 6 -2 6 4 0 16 38 22 50 8 8
-10 2 -14 -25 -19 -19 -4 -35 -11 -35 -16 0 -13 17 -13 25 0 4 6 10 8 15 5 5
-3 20 -1 32 6 l22 12 -23 18 c-28 23 -44 24 -61 4z"/>
<path d="M10582 16978 c8 -12 21 -24 28 -26 8 -3 6 5 -6 21 -23 32 -42 36 -22
5z"/>
<path d="M6585 16972 c-46 -41 -69 -72 -53 -72 9 0 18 9 21 20 4 17 11 20 34
14 27 -6 27 -6 8 9 -11 9 -15 17 -9 17 7 0 14 7 18 15 7 19 6 18 -19 -3z"/>
<path d="M7930 16980 c8 -5 22 -9 30 -9 10 0 8 3 -5 9 -27 12 -43 12 -25 0z"/>
<path d="M11157 16965 c10 -13 23 -25 29 -25 6 0 21 -11 34 -25 13 -14 28 -25
33 -25 12 0 -94 99 -106 100 -4 0 0 -11 10 -25z"/>
<path d="M9362 16952 c1 -18 6 -32 10 -32 5 0 5 12 2 28 -10 39 -15 41 -12 4z"/>
<path d="M9921 16928 c0 -26 4 -58 10 -72 9 -20 9 -29 -1 -41 -10 -12 -10 -15
5 -15 15 0 17 6 10 38 -4 20 -11 60 -15 87 l-7 50 -2 -47z"/>
<path d="M11125 16960 c-8 -13 3 -30 18 -30 8 0 7 3 -2 9 -7 5 -10 14 -7 20 4
6 5 11 2 11 -3 0 -8 -4 -11 -10z"/>
<path d="M7909 16950 c-7 -5 -5 -9 6 -13 9 -4 14 -3 11 1 -2 4 13 7 34 7 21 0
36 -3 34 -7 -3 -4 2 -5 11 -2 9 4 14 9 11 12 -8 8 -94 9 -107 2z"/>
<path d="M15080 16951 c-8 -5 -125 -11 -260 -14 -271 -6 -393 -25 -582 -88
-165 -55 -328 -147 -328 -185 0 -12 28 -61 63 -110 34 -49 70 -101 79 -116
l18 -27 57 20 c103 36 275 78 408 101 175 30 559 32 733 5 342 -54 721 -174
957 -303 331 -181 636 -497 972 -1007 90 -137 263 -421 263 -432 0 -2 17 -34
39 -72 63 -112 267 -485 289 -528 11 -22 47 -96 81 -165 33 -69 80 -161 104
-205 23 -44 98 -183 165 -310 186 -350 234 -429 261 -433 23 -4 23 -2 17 45
-50 364 -155 813 -218 937 -11 22 -49 122 -83 221 -74 212 -115 315 -180 448
-38 76 -52 97 -69 97 -17 0 -26 15 -48 85 -61 188 -176 405 -338 635 -146 206
-412 481 -655 676 -263 211 -447 328 -715 457 -261 126 -484 198 -715 232 -60
9 -139 21 -175 27 -112 18 -125 19 -140 9z"/>
<path d="M7400 16940 c0 -5 5 -10 10 -10 6 0 10 5 10 10 0 6 -4 10 -10 10 -5
0 -10 -4 -10 -10z"/>
<path d="M6812 16914 c-10 -12 -10 -14 2 -14 17 0 30 16 19 23 -5 3 -14 -1
-21 -9z"/>
<path d="M6858 16904 c-21 -13 -38 -27 -38 -30 0 -7 59 28 72 44 14 17 9 15
-34 -14z"/>
<path d="M7613 16923 c9 -2 23 -2 30 0 6 3 -1 5 -18 5 -16 0 -22 -2 -12 -5z"/>
<path d="M9305 16921 c-6 -10 46 -51 64 -51 6 0 11 -4 11 -10 0 -5 4 -10 9
-10 6 0 6 12 0 30 -12 32 -29 40 -29 13 0 -14 -2 -14 -20 2 -16 14 -17 20 -8
27 10 6 9 8 -4 8 -9 0 -19 -4 -23 -9z"/>
<path d="M10677 16917 c-16 -11 -15 -15 20 -47 21 -19 33 -29 26 -21 -7 8 -9
26 -6 44 4 21 3 28 -5 23 -6 -4 -9 -13 -5 -21 3 -8 0 -15 -5 -15 -18 0 -24 20
-12 35 15 18 10 19 -13 2z"/>
<path d="M7696 16905 c10 -8 30 -14 44 -14 23 0 22 1 -9 14 -43 19 -60 19 -35
0z"/>
<path d="M7620 16900 c-12 -8 -9 -10 13 -10 16 0 26 4 22 10 -8 12 -16 12 -35
0z"/>
<path d="M8080 16899 c0 -5 5 -7 10 -4 6 3 10 8 10 11 0 2 -4 4 -10 4 -5 0
-10 -5 -10 -11z"/>
<path d="M9671 16894 c0 -11 3 -14 6 -6 3 7 2 16 -1 19 -3 4 -6 -2 -5 -13z"/>
<path d="M11200 16894 c0 -10 28 -34 41 -34 7 0 4 9 -9 20 -21 20 -32 25 -32
14z"/>
<path d="M6517 16879 c7 -7 15 -10 18 -7 3 3 -2 9 -12 12 -14 6 -15 5 -6 -5z"/>
<path d="M7640 16874 c-25 -7 -38 -13 -30 -13 8 -1 2 -8 -15 -16 -16 -7 -41
-23 -55 -35 l-25 -21 30 16 c17 8 48 26 70 40 47 29 77 31 111 9 19 -13 23
-14 19 -2 -10 25 -56 35 -105 22z"/>
<path d="M8093 16883 c-15 -5 -17 -23 -4 -23 5 0 11 7 15 15 3 8 4 15 3 14 -1
0 -8 -3 -14 -6z"/>
<path d="M8160 16870 c0 -5 5 -10 11 -10 5 0 7 5 4 10 -3 6 -8 10 -11 10 -2 0
-4 -4 -4 -10z"/>
<path d="M7345 16860 c3 -5 8 -10 11 -10 2 0 4 5 4 10 0 6 -5 10 -11 10 -5 0
-7 -4 -4 -10z"/>
<path d="M11331 16823 c24 -21 53 -49 66 -62 13 -13 23 -19 23 -13 0 11 -110
112 -123 112 -5 0 11 -17 34 -37z"/>
<path d="M6690 16842 c0 -5 9 -12 21 -15 12 -3 18 -10 14 -16 -10 -17 7 -13
34 8 l24 19 -22 7 c-12 4 -25 4 -28 1 -4 -3 2 -6 12 -6 14 0 16 -3 8 -11 -8
-8 -18 -6 -37 6 -14 10 -26 13 -26 7z"/>
<path d="M7220 16837 c-33 -15 -33 -14 -25 -26 4 -7 10 -8 18 -1 7 6 21 17 32
25 24 17 10 18 -25 2z"/>
<path d="M7770 16840 c-8 -5 -10 -10 -5 -10 6 0 17 5 25 10 8 5 11 10 5 10 -5
0 -17 -5 -25 -10z"/>
<path d="M7831 16841 c-10 -6 -5 -11 18 -16 29 -6 51 -1 40 9 -12 10 -46 14
-58 7z"/>
<path d="M9720 16839 c0 -4 6 -9 13 -12 9 -3 9 -11 0 -36 -10 -28 -9 -37 8
-64 10 -18 19 -27 19 -22 0 6 -7 20 -15 32 -8 12 -12 29 -9 38 4 10 9 13 13 6
4 -6 7 6 6 27 0 29 -4 38 -17 38 -10 0 -18 -3 -18 -7z"/>
<path d="M6613 16826 c20 -15 47 -11 47 7 0 8 -4 7 -12 -1 -8 -8 -17 -8 -32
-1 -20 10 -20 9 -3 -5z"/>
<path d="M10740 16831 c0 -5 7 -11 14 -14 10 -4 13 -1 9 9 -6 15 -23 19 -23 5z"/>
<path d="M7796 16821 c10 -10 82 -51 89 -51 2 0 2 7 -1 15 -4 8 -14 15 -23 15
-10 0 -26 7 -37 15 -21 16 -44 21 -28 6z"/>
<path d="M8258 16818 c12 -6 22 -15 22 -20 0 -4 8 -8 18 -8 14 0 12 4 -8 20
-14 11 -32 19 -40 19 -9 0 -6 -5 8 -11z"/>
<path d="M9700 16820 c0 -8 5 -22 10 -30 9 -13 10 -13 10 0 0 8 -5 22 -10 30
-9 13 -10 13 -10 0z"/>
<path d="M7912 16800 c0 -14 2 -19 5 -12 2 6 2 18 0 25 -3 6 -5 1 -5 -13z"/>
<path d="M6668 16803 c6 -2 18 -2 25 0 6 3 1 5 -13 5 -14 0 -19 -2 -12 -5z"/>
<path d="M11280 16801 c0 -10 19 -25 25 -20 1 2 -3 10 -11 17 -8 7 -14 8 -14
3z"/>
<path d="M8245 16790 c-3 -5 -2 -10 4 -10 5 0 13 5 16 10 3 6 2 10 -4 10 -5 0
-13 -4 -16 -10z"/>
<path d="M8320 16791 c0 -8 41 -23 47 -17 2 1 -8 8 -22 14 -14 6 -25 8 -25 3z"/>
<path d="M7185 16780 c-3 -5 -1 -10 4 -10 6 0 11 5 11 10 0 6 -2 10 -4 10 -3
0 -8 -4 -11 -10z"/>
<path d="M7248 16773 c7 -3 16 -2 19 1 4 3 -2 6 -13 5 -11 0 -14 -3 -6 -6z"/>
<path d="M9925 16770 c-3 -5 -1 -10 4 -10 6 0 11 5 11 10 0 6 -2 10 -4 10 -3
0 -8 -4 -11 -10z"/>
<path d="M9950 16766 c0 -7 7 -29 16 -47 l15 -34 -6 35 c-4 19 -7 41 -8 48 -1
17 -17 15 -17 -2z"/>
<path d="M7368 16759 c4 -4 18 -10 32 -14 17 -4 21 -3 11 3 -11 8 -11 10 0 15
8 3 0 4 -18 4 -18 -1 -29 -5 -25 -8z"/>
<path d="M7450 16760 c-8 -5 -12 -11 -10 -14 3 -2 14 2 24 10 22 15 10 19 -14
4z"/>
<path d="M7930 16761 c-24 -7 -22 -9 24 -29 27 -12 53 -22 58 -22 5 0 20 -7
34 -16 13 -9 27 -14 31 -10 3 3 1 6 -6 6 -7 0 -11 7 -8 15 4 8 2 17 -3 20 -4
3 -10 -1 -13 -7 -3 -10 -7 -10 -18 -2 -8 7 -29 15 -46 19 -36 7 -43 21 -15 28
11 3 12 5 2 5 -8 0 -26 -3 -40 -7z"/>
<path d="M10820 16760 c0 -8 44 -50 53 -50 4 0 7 5 7 11 0 5 -4 8 -9 4 -17
-10 -24 18 -8 30 14 10 12 12 -13 12 -17 0 -30 -3 -30 -7z"/>
<path d="M11360 16752 c0 -24 70 -64 77 -44 3 6 10 9 15 6 7 -4 8 -2 4 5 -6 9
-11 9 -21 1 -17 -14 -69 16 -61 36 3 8 1 14 -4 14 -6 0 -10 -8 -10 -18z"/>
<path d="M8400 16750 c0 -6 7 -10 15 -10 8 0 15 2 15 4 0 2 -7 6 -15 10 -8 3
-15 1 -15 -4z"/>
<path d="M7099 16741 c9 -6 10 -11 2 -15 -6 -4 -15 -4 -21 -1 -5 3 -10 1 -10
-5 0 -6 12 -15 26 -20 14 -6 22 -14 19 -20 -9 -14 43 -32 69 -23 11 4 32 5 46
4 14 -2 21 1 17 5 -4 5 -36 7 -70 7 -43 -1 -56 1 -42 7 15 7 16 9 4 9 -22 1
-44 28 -28 33 15 5 3 28 -14 28 -8 0 -8 -3 2 -9z"/>
<path d="M8442 16720 c0 -14 2 -19 5 -12 2 6 2 18 0 25 -3 6 -5 1 -5 -13z"/>
<path d="M7385 16720 c-3 -5 -2 -10 4 -10 5 0 13 5 16 10 3 6 2 10 -4 10 -5 0
-13 -4 -16 -10z"/>
<path d="M8400 16720 c0 -6 7 -10 15 -10 8 0 15 2 15 4 0 2 -7 6 -15 10 -8 3
-15 1 -15 -4z"/>
<path d="M7032 16698 c-15 -15 -16 -31 -1 -26 6 2 10 7 9 12 -1 5 4 13 12 17
7 5 8 9 3 9 -6 0 -16 -5 -23 -12z"/>
<path d="M9935 16700 c-3 -5 -1 -10 4 -10 6 0 11 5 11 10 0 6 -2 10 -4 10 -3
0 -8 -4 -11 -10z"/>
<path d="M11360 16700 c0 -5 5 -10 11 -10 5 0 7 5 4 10 -3 6 -8 10 -11 10 -2
0 -4 -4 -4 -10z"/>
<path d="M11482 16680 c7 -11 16 -20 21 -20 4 0 3 9 -3 20 -6 11 -15 20 -20
20 -6 0 -5 -9 2 -20z"/>
<path d="M8138 16679 c-40 -9 83 -19 131 -9 25 4 52 5 60 2 9 -3 12 -1 8 4 -9
10 -161 12 -199 3z"/>
<path d="M10905 16681 c-9 -16 9 -20 23 -5 10 12 10 14 -2 14 -8 0 -17 -4 -21
-9z"/>
<path d="M7268 16673 c6 -2 18 -2 25 0 6 3 1 5 -13 5 -14 0 -19 -2 -12 -5z"/>
<path d="M9823 16673 c-7 -2 -13 -12 -13 -21 -1 -15 -3 -14 -15 2 -8 11 -15
15 -15 9 0 -6 6 -16 14 -22 11 -9 18 -8 30 4 13 14 23 37 14 34 -2 0 -9 -3
-15 -6z"/>
<path d="M10941 16663 c-7 -8 -11 -16 -8 -19 2 -2 10 2 17 11 17 20 9 27 -9 8z"/>
<path d="M11450 16650 c0 -5 5 -10 11 -10 5 0 7 5 4 10 -3 6 -8 10 -11 10 -2
0 -4 -4 -4 -10z"/>
<path d="M11490 16629 c0 -5 5 -7 10 -4 6 3 10 8 10 11 0 2 -4 4 -10 4 -5 0
-10 -5 -10 -11z"/>
<path d="M9830 16619 c0 -5 -5 -7 -11 -4 -6 4 -5 -2 3 -14 7 -12 17 -21 22
-21 6 0 5 5 -1 11 -6 6 -9 18 -6 25 3 8 2 14 -1 14 -3 0 -6 -5 -6 -11z"/>
<path d="M11439 16608 c-1 -7 -1 -16 0 -20 0 -4 -6 -5 -14 -2 -9 4 -18 -3 -24
-17 -12 -32 -47 -63 -56 -50 -3 6 -11 11 -18 11 -8 0 -8 -3 1 -12 8 -8 6 -16
-10 -29 -11 -10 -25 -16 -31 -12 -6 4 -8 0 -4 -10 5 -12 -1 -19 -18 -23 -14
-3 -25 -10 -25 -15 0 -5 -12 -9 -27 -10 -24 0 -25 -1 -8 -8 19 -8 63 13 90 43
6 6 30 27 55 46 25 19 51 43 58 52 7 10 18 18 23 18 5 0 20 9 32 21 19 18 19
19 3 13 -14 -5 -17 -4 -12 4 4 7 2 12 -3 12 -6 0 -12 -6 -12 -12z"/>
<path d="M10995 16600 c-3 -6 1 -7 9 -4 18 7 21 14 7 14 -6 0 -13 -4 -16 -10z"/>
<path d="M11360 16591 c0 -25 6 -27 13 -6 4 8 2 17 -3 20 -6 4 -10 -3 -10 -14z"/>
<path d="M9900 16590 c0 -5 5 -10 10 -10 6 0 10 5 10 10 0 6 -4 10 -10 10 -5
0 -10 -4 -10 -10z"/>
<path d="M10005 16579 c-4 -6 -5 -12 -2 -15 2 -3 7 2 10 11 7 17 1 20 -8 4z"/>
<path d="M11010 16580 c0 -5 7 -7 15 -4 8 4 15 8 15 10 0 2 -7 4 -15 4 -8 0
-15 -4 -15 -10z"/>
<path d="M9889 16536 c19 -20 37 -36 39 -36 10 0 -46 64 -59 68 -8 3 2 -12 20
-32z"/>
<path d="M9965 16520 c-3 -6 1 -7 9 -4 18 7 21 14 7 14 -6 0 -13 -4 -16 -10z"/>
<path d="M11065 16520 c4 -6 11 -8 16 -5 14 9 11 15 -7 15 -8 0 -12 -5 -9 -10z"/>
<path d="M8920 16471 c0 -76 19 -296 36 -406 87 -588 348 -1078 729 -1368 122
-93 373 -199 501 -212 32 -4 69 -12 82 -18 14 -6 26 -7 31 -1 5 5 40 70 77
144 74 149 158 282 261 417 80 105 217 265 267 312 20 19 36 43 36 53 0 66
-188 222 -364 304 -93 42 -235 90 -426 143 -216 59 -370 115 -515 186 -225
110 -473 291 -555 406 -46 63 -85 89 -135 89 -23 0 -25 -3 -25 -49z"/>
<path d="M11095 16511 c-3 -5 8 -19 24 -30 36 -26 47 -27 24 -3 -10 11 -22 17
-27 14 -5 -3 -7 2 -3 11 7 18 -8 24 -18 8z"/>
<path d="M11185 16511 c-3 -5 -1 -12 5 -16 5 -3 10 1 10 9 0 18 -6 21 -15 7z"/>
<path d="M11290 16510 c0 -5 5 -10 11 -10 5 0 7 5 4 10 -3 6 -8 10 -11 10 -2
0 -4 -4 -4 -10z"/>
<path d="M9940 16496 c0 -2 16 -13 35 -25 19 -11 35 -16 35 -11 0 5 -13 16
-30 25 -30 15 -40 18 -40 11z"/>
<path d="M10030 16465 c0 -19 4 -35 8 -35 4 0 6 16 4 35 -2 19 -6 35 -8 35 -2
0 -4 -16 -4 -35z"/>
<path d="M11162 16454 c-16 -17 -1 -25 31 -16 l26 7 -23 11 c-16 8 -25 7 -34
-2z"/>
<path d="M14720 16350 c-47 -5 -123 -17 -170 -28 -86 -21 -316 -104 -332 -120
-7 -7 47 -319 58 -331 1 -1 58 22 126 52 358 159 700 156 1031 -9 40 -20 97
-54 127 -76 63 -47 250 -237 250 -255 0 -7 9 -13 20 -13 11 0 20 -5 20 -10 0
-6 13 -39 29 -73 33 -71 76 -244 92 -368 36 -280 -67 -547 -307 -795 -314
-323 -814 -420 -1209 -235 -129 60 -217 124 -321 234 -52 54 -94 92 -94 84 0
-30 30 -154 80 -332 28 -99 64 -243 80 -320 38 -182 57 -250 103 -355 42 -98
63 -133 99 -166 34 -30 44 -34 94 -34 64 0 201 33 253 60 20 11 90 40 155 66
455 177 907 539 1159 930 155 239 232 474 244 739 10 233 -28 397 -144 628
-43 87 -59 110 -82 118 -23 8 -30 18 -35 48 -18 115 -242 323 -451 421 -258
120 -558 168 -875 140z m-345 -2500 c209 -90 267 -104 440 -104 135 -1 170 3
347 38 108 21 204 36 214 32 15 -6 15 -9 -6 -31 -34 -37 -291 -161 -395 -192
-81 -24 -107 -26 -255 -27 -96 0 -181 4 -202 11 -59 18 -178 103 -206 147 -30
48 -67 122 -77 154 -9 32 6 29 140 -28z"/>
<path d="M6570 16179 c-96 -3 -298 -7 -447 -8 -229 -1 -279 -4 -315 -18 -72
-28 -168 -103 -228 -179 -58 -73 -120 -172 -120 -193 0 -8 359 -11 1370 -11
1330 0 1370 1 1370 19 0 10 -16 50 -35 88 -88 176 -262 274 -537 303 -103 11
-784 10 -1058 -1z"/>
<path d="M14760 15855 c-143 -26 -288 -79 -358 -131 -59 -45 -77 -110 -48
-177 34 -82 77 -86 242 -21 148 57 255 73 388 56 254 -32 449 -153 614 -382
36 -50 65 -136 113 -342 18 -75 36 -135 39 -133 9 6 38 117 50 195 22 144 6
277 -50 416 -56 138 -119 222 -255 339 -47 41 -173 112 -245 140 -141 53 -330
68 -490 40z"/>
<path d="M16450 15610 c0 -11 5 -20 11 -20 6 0 8 7 5 16 -5 13 -2 15 14 11 11
-3 18 -1 14 4 -11 18 -44 10 -44 -11z"/>
<path d="M16500 15591 c0 -5 5 -13 10 -16 6 -3 10 -2 10 4 0 5 -4 13 -10 16
-5 3 -10 2 -10 -4z"/>
<path d="M16477 15584 c-4 -4 -7 -14 -7 -23 0 -14 2 -14 10 -1 8 12 10 12 16
-3 3 -9 9 -15 14 -12 4 2 13 -7 20 -20 7 -14 17 -25 22 -25 4 0 7 -10 7 -22
-1 -17 -2 -19 -6 -5 -2 9 -9 17 -14 17 -13 0 -11 -12 6 -34 11 -14 15 -16 15
-5 0 12 2 12 10 -1 8 -11 9 -7 4 15 -4 17 -12 37 -19 45 -6 8 -15 23 -18 33
-4 9 -13 17 -21 17 -8 0 -19 7 -24 15 -4 9 -11 12 -15 9z"/>
<path d="M11790 15495 c-141 -56 -237 -105 -345 -178 -251 -168 -353 -263
-550 -515 -187 -239 -267 -429 -400 -942 -82 -314 -107 -398 -156 -523 -81
-204 -185 -379 -321 -542 -152 -182 -316 -314 -514 -410 l-111 -54 -13 -73
c-26 -146 -94 -311 -183 -443 -65 -95 -222 -250 -321 -317 -156 -104 -324
-174 -526 -219 -163 -36 -463 -38 -627 -3 -35 7 -30 -38 16 -131 31 -64 42
-104 56 -198 64 -430 -90 -880 -425 -1239 -49 -53 -90 -100 -90 -105 -1 -13
-198 -158 -300 -219 -99 -60 -348 -183 -412 -203 -32 -10 -37 -16 -33 -34 124
-545 225 -823 388 -1067 140 -208 357 -357 577 -395 l35 -6 22 87 c33 125 115
324 179 432 203 341 509 536 884 563 69 4 144 11 168 15 35 5 42 4 42 -9 0
-22 22 -32 160 -72 172 -50 440 -174 511 -235 l24 -21 -60 6 c-33 4 -96 11
-140 15 -44 5 -123 17 -175 26 -133 24 -367 24 -480 0 -312 -67 -540 -215
-700 -451 -59 -87 -110 -190 -110 -222 0 -28 75 -78 149 -99 31 -9 76 -25 101
-36 25 -11 71 -23 102 -25 97 -9 169 12 348 102 248 125 338 149 1070 285 472
88 1041 307 1489 575 165 98 440 284 481 325 3 3 28 23 55 44 73 58 206 177
314 281 96 92 367 407 436 505 178 254 312 493 410 735 138 338 214 705 230
1105 8 196 -19 538 -55 695 -52 230 -62 278 -58 300 4 19 1 25 -13 25 -11 0
-19 2 -19 4 0 43 -72 375 -105 478 -42 135 -42 139 -18 116 31 -29 144 -180
204 -273 25 -38 61 -95 81 -125 65 -101 195 -355 287 -564 34 -75 81 -221 81
-250 0 -15 6 -26 13 -26 42 0 74 487 47 700 -46 359 -157 688 -320 952 -75
119 -109 161 -263 318 -161 164 -222 234 -252 288 -11 20 -23 39 -26 42 -3 3
-19 30 -34 60 -101 192 -209 350 -240 350 -9 0 -34 65 -69 174 -85 266 -174
423 -250 442 -22 5 -37 0 -69 -23 -96 -67 -232 -269 -271 -403 -20 -65 -22
-219 -6 -282 38 -141 172 -286 373 -405 93 -56 314 -164 444 -217 39 -17 63
-36 103 -85 29 -37 47 -68 42 -73 -5 -5 -94 -2 -207 7 -164 13 -203 19 -226
36 -15 10 -72 35 -126 54 -129 47 -184 74 -264 135 -191 144 -308 339 -340
569 -21 146 11 312 91 476 39 80 70 124 157 224 152 174 165 190 161 199 -1 5
-50 -10 -108 -33z m-1112 -3901 c89 -18 152 -40 347 -120 104 -43 160 -60 221
-67 79 -10 83 -10 127 16 25 15 59 27 75 27 30 0 42 7 176 103 43 31 83 57 88
57 31 0 -41 -177 -117 -290 -89 -131 -293 -294 -467 -374 -40 -19 -116 -46
-168 -61 -150 -43 -157 -49 -234 -182 -61 -106 -107 -151 -209 -204 l-82 -43
-205 0 c-137 0 -215 5 -234 13 -112 46 22 -131 159 -210 137 -80 326 -96 498
-45 106 32 147 52 247 121 70 49 131 85 145 85 11 0 5 -48 -14 -103 -54 -164
-194 -298 -378 -362 -405 -141 -848 76 -980 480 -35 108 -44 329 -19 455 74
361 343 644 677 709 75 15 264 12 347 -5z m-2058 -1705 c40 -11 103 -36 139
-56 72 -40 151 -99 151 -114 0 -16 -42 -9 -79 14 -30 18 -50 22 -122 22 -58 0
-91 4 -102 14 -24 19 -92 18 -115 -2 -13 -12 -37 -17 -84 -17 -91 0 -194 -29
-376 -105 -201 -85 -197 -84 -183 -56 19 34 141 160 186 191 134 91 252 129
405 129 77 1 125 -5 180 -20z m-115 -580 c183 -26 410 -131 428 -199 7 -26 2
-26 -141 6 -157 35 -336 37 -464 6 -217 -53 -328 -118 -529 -308 -199 -189
-314 -267 -414 -281 -49 -6 -52 -2 -34 44 6 15 26 85 44 154 41 152 84 247
139 307 83 90 284 204 444 251 126 38 342 46 527 20z"/>
<path d="M10320 11326 c-180 -52 -326 -196 -381 -376 -16 -53 -19 -88 -17
-185 2 -72 7 -120 14 -122 17 -6 82 66 159 178 113 163 171 212 299 251 65 20
81 20 240 12 244 -13 379 -9 451 14 81 25 80 45 -3 54 -39 4 -110 26 -190 58
-280 114 -308 122 -422 126 -67 2 -121 -1 -150 -10z"/>
<path d="M10296 10908 c-28 -130 -28 -128 39 -128 51 0 83 19 95 56 19 58 -17
94 -95 94 -28 0 -36 -4 -39 -22z"/>
<path d="M16500 15488 c0 -19 2 -20 10 -8 13 19 13 30 0 30 -5 0 -10 -10 -10
-22z"/>
<path d="M16511 15448 c1 -7 5 -24 9 -38 8 -24 8 -24 9 7 1 17 -3 35 -9 38 -5
3 -10 0 -9 -7z"/>
<path d="M16550 15393 c0 -15 2 -16 10 -3 8 13 10 12 10 -2 0 -10 5 -18 10
-18 16 0 11 27 -6 34 -23 9 -24 8 -24 -11z"/>
<path d="M16612 15380 c0 -14 2 -19 5 -12 2 6 2 18 0 25 -3 6 -5 1 -5 -13z"/>
<path d="M14740 15359 c-189 -31 -355 -206 -383 -404 -26 -179 62 -378 208
-470 251 -158 573 -70 703 193 34 70 37 83 40 183 5 121 -7 172 -64 275 -43
79 -107 137 -199 180 -101 49 -191 61 -305 43z m180 -298 c45 -24 97 -92 106
-138 21 -113 -76 -233 -189 -233 -53 0 -135 39 -164 78 -75 102 -36 241 82
297 43 20 124 19 165 -4z"/>
<path d="M16543 15330 c0 -25 2 -35 4 -22 2 12 2 32 0 45 -2 12 -4 2 -4 -23z"/>
<path d="M16630 15351 c0 -6 4 -13 10 -16 6 -3 7 1 4 9 -7 18 -14 21 -14 7z"/>
<path d="M16570 15338 c0 -4 4 -8 9 -8 6 0 12 4 15 8 3 5 -1 9 -9 9 -8 0 -15
-4 -15 -9z"/>
<path d="M16645 15310 c-3 -5 -1 -10 4 -10 6 0 11 5 11 10 0 6 -2 10 -4 10 -3
0 -8 -4 -11 -10z"/>
<path d="M16667 15270 c-3 -13 0 -20 9 -20 8 0 14 -6 14 -13 0 -8 10 -22 22
-33 18 -16 17 -12 -7 31 -16 28 -29 51 -31 53 -1 1 -4 -6 -7 -18z"/>
<path d="M5465 15240 c3 -5 8 -10 11 -10 2 0 4 5 4 10 0 6 -5 10 -11 10 -5 0
-7 -4 -4 -10z"/>
<path d="M6875 15225 c-58 -28 -85 -48 -85 -64 0 -6 -4 -11 -9 -11 -5 0 -13
-10 -17 -22 -4 -13 -12 -26 -18 -30 -8 -6 -7 -8 2 -8 6 0 12 -9 12 -19 0 -36
18 -31 24 7 3 20 8 46 10 57 2 11 5 23 5 26 2 14 82 59 106 59 16 0 25 6 25
15 0 8 -1 15 -2 14 -2 0 -25 -11 -53 -24z m-85 -93 c0 -5 -7 -17 -16 -28 -8
-10 -14 -14 -11 -9 2 6 7 18 10 28 7 17 17 23 17 9z"/>
<path d="M8506 15233 c-13 -33 64 -59 103 -34 11 7 10 11 -7 20 -11 6 -27 11
-34 10 -7 0 -2 -5 12 -11 36 -15 7 -22 -34 -8 -24 8 -33 16 -29 26 3 8 3 14 0
14 -3 0 -8 -8 -11 -17z"/>
<path d="M6105 15230 c-18 -8 -18 -9 5 -9 14 0 32 4 40 9 12 8 12 10 -5 9 -11
0 -29 -4 -40 -9z"/>
<path d="M8422 15232 c-28 -8 -31 -26 -5 -29 15 -2 15 -1 -2 6 -18 9 -17 10 7
10 15 1 30 6 33 11 7 11 1 11 -33 2z"/>
<path d="M5295 15203 c-37 -26 -38 -28 -16 -31 13 -2 28 1 34 7 8 8 7 11 -3
11 -8 1 1 9 20 20 19 11 28 19 20 20 -9 0 -33 -12 -55 -27z"/>
<path d="M5498 15223 c7 -3 16 -2 19 1 4 3 -2 6 -13 5 -11 0 -14 -3 -6 -6z"/>
<path d="M6252 15216 c9 -9 17 -11 25 -4 8 6 18 6 30 -1 11 -6 13 -11 5 -11
-7 0 -10 -5 -6 -11 5 -8 8 -8 13 0 11 18 41 -10 43 -41 2 -19 8 -28 19 -28 10
0 20 -6 22 -12 3 -8 6 -6 6 5 1 9 -5 17 -12 17 -7 0 -18 13 -24 30 -13 34 -67
70 -106 70 -23 0 -26 -2 -15 -14z"/>
<path d="M7045 15220 c3 -5 13 -10 21 -10 8 0 12 -4 9 -10 -3 -5 0 -10 7 -10
9 0 9 -3 -2 -10 -8 -5 -10 -10 -5 -10 6 0 17 5 25 10 11 7 11 10 2 10 -7 0
-11 4 -8 9 3 4 -6 13 -20 20 -31 14 -37 14 -29 1z"/>
<path d="M7625 15218 c-30 -16 -65 -50 -77 -73 -5 -11 9 -1 32 23 45 45 51 48
81 32 13 -7 19 -7 19 0 0 5 -8 10 -17 11 -15 0 -15 2 2 9 l20 9 -20 0 c-11 0
-29 -5 -40 -11z"/>
<path d="M7810 15226 c0 -2 9 -6 20 -9 11 -3 18 -1 14 4 -5 9 -34 13 -34 5z"/>
<path d="M16660 15215 c0 -8 5 -15 10 -15 6 0 10 7 10 15 0 8 -4 15 -10 15 -5
0 -10 -7 -10 -15z"/>
<path d="M5543 15209 c21 -12 22 -29 2 -29 -8 0 -15 4 -15 8 0 4 -12 9 -27 10
-25 1 -26 0 -9 -10 10 -6 39 -12 65 -14 l46 -3 -28 25 c-15 13 -33 24 -40 24
-7 0 -4 -5 6 -11z"/>
<path d="M6044 15196 c-16 -14 -24 -26 -18 -26 6 0 17 7 24 15 17 20 31 19 24
-2 -5 -16 -4 -16 6 -3 9 11 13 12 17 3 2 -7 12 -13 21 -13 12 0 10 5 -8 17
-14 9 -28 21 -31 26 -3 5 -19 -3 -35 -17z"/>
<path d="M6947 15200 c3 -11 7 -20 9 -20 2 0 4 9 4 20 0 11 -4 20 -9 20 -5 0
-7 -9 -4 -20z"/>
<path d="M6143 15190 c-1 -11 2 -20 8 -20 5 0 9 9 9 20 0 11 -4 20 -8 20 -4 0
-8 -9 -9 -20z"/>
<path d="M8458 15197 c12 -7 19 -17 15 -22 -4 -4 -3 -5 4 -1 18 10 4 36 -21
36 -21 -1 -21 -1 2 -13z"/>
<path d="M6875 15190 c-3 -5 -2 -10 4 -10 5 0 13 5 16 10 3 6 2 10 -4 10 -5 0
-13 -4 -16 -10z"/>
<path d="M7615 15190 c-3 -5 3 -10 15 -10 12 0 18 5 15 10 -3 6 -10 10 -15 10
-5 0 -12 -4 -15 -10z"/>
<path d="M7794 15189 c-5 -9 1 -10 20 -5 15 4 25 3 22 -2 -6 -11 51 -8 62 3 4
4 -3 4 -15 1 -12 -4 -24 -2 -28 4 -8 14 -52 13 -61 -1z"/>
<path d="M8615 15185 l-30 -14 38 4 c33 4 37 2 27 -10 -7 -8 -10 -19 -8 -24 1
-6 8 1 14 14 16 34 -2 47 -41 30z"/>
<path d="M5345 15180 c3 -5 8 -10 11 -10 2 0 4 5 4 10 0 6 -5 10 -11 10 -5 0
-7 -4 -4 -10z"/>
<path d="M6915 15180 c3 -5 8 -10 11 -10 2 0 4 5 4 10 0 6 -5 10 -11 10 -5 0
-7 -4 -4 -10z"/>
<path d="M7040 15179 c0 -5 5 -7 10 -4 6 3 10 8 10 11 0 2 -4 4 -10 4 -5 0
-10 -5 -10 -11z"/>
<path d="M7120 15181 c0 -5 8 -17 18 -27 9 -10 22 -29 29 -43 6 -14 12 -19 12
-12 1 14 -47 91 -55 91 -2 0 -4 -4 -4 -9z"/>
<path d="M16675 15180 c-3 -5 -1 -10 4 -10 6 0 11 5 11 10 0 6 -2 10 -4 10 -3
0 -8 -4 -11 -10z"/>
<path d="M5237 15142 c-10 -10 -17 -22 -17 -27 0 -5 9 1 21 14 12 12 19 24 17
27 -3 2 -12 -4 -21 -14z"/>
<path d="M5272 15135 c0 -16 2 -22 5 -12 2 9 2 23 0 30 -3 6 -5 -1 -5 -18z"/>
<path d="M5601 15150 c0 -8 3 -19 7 -25 10 -14 35 -18 30 -5 -2 7 -8 11 -13
10 -5 -1 -12 7 -16 17 -6 13 -8 14 -8 3z"/>
<path d="M7927 15143 c8 -23 33 -60 33 -50 0 11 -29 67 -35 67 -2 0 -2 -8 2
-17z"/>
<path d="M16730 15157 c0 -2 11 -18 25 -37 27 -37 32 -35 14 4 -9 20 -39 45
-39 33z"/>
<path d="M8296 15134 c-4 -9 -4 -19 -1 -22 2 -3 7 3 11 12 4 9 4 19 1 22 -2 3
-7 -3 -11 -12z"/>
<path d="M8669 15132 c-31 -37 -32 -46 -2 -22 31 24 41 40 25 40 -4 0 -14 -8
-23 -18z"/>
<path d="M16583 15090 c0 -36 2 -50 4 -32 2 17 2 47 0 65 -2 17 -4 3 -4 -33z"/>
<path d="M6320 15127 c0 -15 27 -43 34 -36 3 2 -4 15 -15 28 -13 16 -19 18
-19 8z"/>
<path d="M7562 15118 c-7 -7 -12 -16 -12 -21 0 -5 7 -1 16 8 9 9 14 18 12 20
-2 3 -10 -1 -16 -7z"/>
<path d="M16622 15110 c0 -14 2 -19 5 -12 2 6 2 18 0 25 -3 6 -5 1 -5 -13z"/>
<path d="M8685 15100 c-3 -5 -1 -10 4 -10 6 0 11 5 11 10 0 6 -2 10 -4 10 -3
0 -8 -4 -11 -10z"/>
<path d="M16727 15096 c-4 -10 -1 -13 8 -9 8 3 12 9 9 14 -7 12 -11 11 -17 -5z"/>
<path d="M5987 15093 c-9 -8 -8 -103 1 -126 4 -9 7 16 7 58 0 41 0 75 -1 75 0
0 -4 -3 -7 -7z"/>
<path d="M8290 15050 c-2 -42 -3 -43 -10 -15 -5 19 -8 23 -8 10 -1 -27 40
-145 61 -175 12 -18 17 -20 17 -8 0 9 -5 18 -12 20 -6 2 -12 13 -12 24 -1 11
-5 25 -10 32 -14 22 -25 72 -16 72 5 0 11 -6 13 -12 3 -7 6 1 6 17 1 22 -2 26
-8 16 -7 -11 -11 -4 -14 25 l-4 39 -3 -45z"/>
<path d="M7957 15035 c7 -61 9 -65 15 -26 2 16 -1 40 -9 53 -11 20 -12 17 -6
-27z"/>
<path d="M6743 15010 c0 -36 2 -50 4 -32 2 17 2 47 0 65 -2 17 -4 3 -4 -33z"/>
<path d="M7933 15025 c0 -22 2 -30 4 -17 2 12 2 30 0 40 -3 9 -5 -1 -4 -23z"/>
<path d="M8733 15010 c0 -30 2 -43 4 -27 2 15 2 39 0 55 -2 15 -4 2 -4 -28z"/>
<path d="M16598 15033 c-2 -18 -1 -30 3 -27 4 2 10 -4 12 -13 3 -12 5 -9 5 7
0 14 -3 34 -7 45 -7 17 -9 15 -13 -12z"/>
<path d="M16803 15034 c1 -17 7 -31 14 -31 8 0 9 6 4 16 -5 9 -11 23 -14 31
-3 8 -4 1 -4 -16z"/>
<path d="M6422 15030 c0 -14 2 -19 5 -12 2 6 2 18 0 25 -3 6 -5 1 -5 -13z"/>
<path d="M5601 15024 c0 -11 3 -14 6 -6 3 7 2 16 -1 19 -3 4 -6 -2 -5 -13z"/>
<path d="M5653 15000 c0 -25 2 -35 4 -22 2 12 2 32 0 45 -2 12 -4 2 -4 -23z"/>
<path d="M5622 15010 c0 -14 2 -19 5 -12 2 6 2 18 0 25 -3 6 -5 1 -5 -13z"/>
<path d="M6402 15010 c0 -14 2 -19 5 -12 2 6 2 18 0 25 -3 6 -5 1 -5 -13z"/>
<path d="M7512 14980 c0 -19 2 -27 5 -17 2 9 2 25 0 35 -3 9 -5 1 -5 -18z"/>
<path d="M6762 14970 c0 -14 2 -19 5 -12 2 6 2 18 0 25 -3 6 -5 1 -5 -13z"/>
<path d="M16827 14983 c-4 -3 -7 -11 -7 -17 0 -6 5 -5 12 2 6 6 9 14 7 17 -3
3 -9 2 -12 -2z"/>
<path d="M7921 14964 c0 -11 3 -14 6 -6 3 7 2 16 -1 19 -3 4 -6 -2 -5 -13z"/>
<path d="M5630 14949 c0 -14 -5 -19 -14 -16 -9 4 -12 -2 -11 -16 1 -12 3 -28
4 -35 0 -7 6 -10 11 -7 8 5 7 11 -1 21 -6 8 -9 18 -5 21 4 4 11 1 16 -7 7 -11
10 -5 10 23 0 20 -2 37 -5 37 -3 0 -5 -9 -5 -21z"/>
<path d="M7129 14958 c0 -7 -2 -26 -4 -43 -3 -22 -2 -25 4 -11 5 12 10 16 14
9 9 -14 -2 -45 -13 -38 -5 3 -8 -4 -7 -15 1 -18 5 -16 29 12 29 35 40 70 15
49 -19 -15 -28 -3 -21 25 4 15 2 24 -5 24 -6 0 -11 -6 -12 -12z"/>
<path d="M7946 14951 c-4 -7 -5 -15 -2 -18 9 -9 19 4 14 18 -4 11 -6 11 -12 0z"/>
<path d="M16840 14951 c0 -6 4 -13 10 -16 6 -3 7 1 4 9 -7 18 -14 21 -14 7z"/>
<path d="M6790 14940 c0 -5 -3 -9 -7 -9 -29 5 -33 -2 -18 -32 9 -17 19 -28 23
-25 7 8 13 76 7 76 -3 0 -5 -4 -5 -10z m0 -30 c0 -5 -4 -10 -10 -10 -5 0 -10
5 -10 10 0 6 5 10 10 10 6 0 10 -4 10 -10z"/>
<path d="M16805 14940 c-3 -5 -1 -10 4 -10 6 0 11 5 11 10 0 6 -2 10 -4 10 -3
0 -8 -4 -11 -10z"/>
<path d="M5220 14914 c0 -8 5 -12 10 -9 6 3 10 10 10 16 0 5 -4 9 -10 9 -5 0
-10 -7 -10 -16z"/>
<path d="M5252 14905 c-12 -13 -18 -26 -13 -29 4 -3 15 8 25 25 21 35 17 37
-12 4z"/>
<path d="M6029 14928 c-1 -2 -3 -14 -4 -28 -3 -34 18 -62 67 -89 24 -12 34
-15 24 -7 -19 16 -19 16 -1 16 15 0 16 3 7 12 -10 10 -15 10 -22 -2 -7 -12
-13 -10 -35 10 -15 14 -24 32 -22 42 3 9 0 19 -7 22 -7 3 -6 8 4 15 10 7 11
11 3 11 -7 0 -14 -1 -14 -2z"/>
<path d="M6395 14920 c9 -15 -37 -70 -59 -70 -15 0 -17 -3 -8 -9 18 -11 -2
-26 -46 -36 -18 -4 -31 -9 -28 -12 10 -11 63 9 91 35 50 45 81 102 54 102 -5
0 -7 -4 -4 -10z"/>
<path d="M7545 14920 c-10 -16 3 -44 35 -75 26 -25 32 -27 52 -16 22 11 22 11
-4 6 -24 -5 -28 -2 -28 17 0 16 -3 19 -9 10 -10 -17 -45 33 -37 54 6 16 0 19
-9 4z"/>
<path d="M8354 14910 c0 -11 6 -20 12 -20 7 0 10 8 7 20 -3 11 -8 20 -12 20
-4 0 -7 -9 -7 -20z"/>
<path d="M8678 14923 c7 -3 16 -2 19 1 4 3 -2 6 -13 5 -11 0 -14 -3 -6 -6z"/>
<path d="M8710 14915 c-7 -9 -8 -15 -2 -15 5 0 12 7 16 15 3 8 4 15 2 15 -2 0
-9 -7 -16 -15z"/>
<path d="M16593 14855 c-2 -94 10 -142 21 -85 4 19 6 64 4 100 l-4 65 -4 -85
-4 -85 -6 85 -6 85 -1 -80z"/>
<path d="M6071 14904 c0 -11 3 -14 6 -6 3 7 2 16 -1 19 -3 4 -6 -2 -5 -13z"/>
<path d="M7930 14900 c-6 -12 -9 -24 -7 -27 3 -2 11 5 17 17 6 12 9 24 7 27
-3 2 -11 -5 -17 -17z"/>
<path d="M7570 14901 c0 -17 18 -21 24 -6 3 9 0 15 -9 15 -8 0 -15 -4 -15 -9z"/>
<path d="M8672 14890 c13 -20 28 -27 28 -12 0 4 -9 13 -20 20 -19 12 -20 11
-8 -8z"/>
<path d="M16884 14863 c-1 -21 1 -31 4 -23 3 8 9 18 13 21 5 3 3 13 -4 22 -10
15 -12 12 -13 -20z"/>
<path d="M5261 14867 c-13 -21 -12 -21 5 -5 10 10 16 20 13 22 -3 3 -11 -5
-18 -17z"/>
<path d="M8393 14866 c1 -11 9 -21 17 -23 10 -3 11 -2 4 4 -6 4 -14 15 -17 23
-5 11 -6 9 -4 -4z"/>
<path d="M8365 14851 c-13 -22 18 -43 46 -31 23 10 23 10 1 6 -17 -3 -25 1
-31 16 -6 16 -10 18 -16 9z"/>
<path d="M5295 14840 c-8 -13 5 -13 25 0 13 8 13 10 -2 10 -9 0 -20 -4 -23
-10z"/>
<path d="M5368 14843 c-34 -9 -7 -33 36 -31 36 1 37 2 9 5 -53 7 -38 22 25 26
l57 3 -55 1 c-30 0 -63 -1 -72 -4z"/>
<path d="M6157 14834 c3 -7 -1 -14 -8 -14 -7 0 -10 -2 -7 -5 7 -7 38 5 38 15
0 4 -7 10 -14 13 -10 4 -13 1 -9 -9z"/>
<path d="M6230 14840 c-13 -9 -13 -11 0 -20 15 -9 41 -5 70 11 12 7 11 8 -5 9
-12 0 -26 -5 -33 -12 -6 -6 -15 -8 -19 -4 -4 4 -1 11 7 16 8 6 11 10 5 10 -5
0 -17 -5 -25 -10z"/>
<path d="M6819 14834 c11 -9 20 -9 29 -2 7 6 16 8 19 4 4 -4 1 -11 -6 -15 -22
-14 1 -19 54 -12 l50 7 -42 7 c-24 4 -43 11 -43 16 0 5 -17 8 -39 7 -32 0 -36
-3 -22 -12z"/>
<path d="M6948 14843 c7 -3 16 -2 19 1 4 3 -2 6 -13 5 -11 0 -14 -3 -6 -6z"/>
<path d="M7026 14833 c-7 -17 12 -16 30 1 12 13 12 15 -6 13 -11 -1 -22 -7
-24 -14z"/>
<path d="M7713 14843 c9 -2 25 -2 35 0 9 3 1 5 -18 5 -19 0 -27 -2 -17 -5z"/>
<path d="M7788 14843 c7 -3 16 -2 19 1 4 3 -2 6 -13 5 -11 0 -14 -3 -6 -6z"/>
<path d="M8640 14840 c-8 -5 -10 -10 -5 -10 6 0 17 5 25 10 8 5 11 10 5 10 -5
0 -17 -5 -25 -10z"/>
<path d="M16632 14783 c-1 -39 -7 -73 -13 -75 -11 -4 -18 -98 -6 -98 4 0 7 14
7 31 0 17 5 39 10 50 6 11 9 52 7 92 l-3 72 -2 -72z"/>
<path d="M16906 14833 c-3 -10 -9 -24 -12 -30 -3 -7 -1 -13 4 -13 5 0 13 12
16 26 8 30 2 44 -8 17z"/>
<path d="M5485 14825 l-40 -12 60 2 c41 1 60 6 63 16 3 11 2 11 -6 0 -8 -11
-14 -12 -24 -4 -9 7 -25 7 -53 -2z"/>
<path d="M7077 14826 c-3 -8 -23 -18 -44 -21 -52 -9 -75 -16 -70 -21 9 -9 108
19 129 36 18 16 20 19 7 20 -9 0 -19 -7 -22 -14z"/>
<path d="M7860 14830 c0 -5 5 -10 11 -10 5 0 7 5 4 10 -3 6 -8 10 -11 10 -2 0
-4 -4 -4 -10z"/>
<path d="M8550 14830 c-12 -8 -11 -10 6 -10 11 0 25 -5 31 -11 8 -8 13 -8 17
0 4 6 0 11 -8 11 -9 0 -16 5 -16 10 0 13 -11 13 -30 0z"/>
<path d="M6990 14820 c-9 -6 -10 -10 -3 -10 6 0 15 5 18 10 8 12 4 12 -15 0z"/>
<path d="M7687 14819 c25 -10 81 -11 87 -1 2 4 -20 8 -50 8 -33 0 -48 -3 -37
-7z"/>
<path d="M7820 14826 c0 -2 7 -7 16 -10 8 -3 12 -2 9 4 -6 10 -25 14 -25 6z"/>
<path d="M8450 14820 c-13 -8 -13 -10 2 -10 9 0 20 5 23 10 8 13 -5 13 -25 0z"/>
<path d="M8495 14820 c-3 -5 1 -10 9 -10 8 0 18 5 21 10 3 6 -1 10 -9 10 -8 0
-18 -4 -21 -10z"/>
<path d="M5324 14806 c11 -9 30 -16 42 -16 12 0 31 -3 41 -7 10 -3 15 -3 11 1
-3 4 -21 11 -40 16 -18 4 -42 11 -53 15 -20 7 -20 6 -1 -9z"/>
<path d="M16930 14797 c0 -15 4 -26 10 -24 11 2 52 -74 44 -82 -3 -3 -9 1 -14
9 -7 11 -9 9 -7 -8 0 -12 4 -22 8 -22 3 0 4 -11 2 -24 -3 -13 1 -27 7 -31 9
-5 10 -1 5 14 -5 16 -2 26 11 35 16 12 14 18 -21 82 -46 84 -45 83 -45 51z"/>
<path d="M5490 14800 l-35 -7 32 -2 c17 0 35 4 38 9 3 6 5 9 3 9 -2 -1 -19 -5
-38 -9z"/>
<path d="M7645 14801 c34 -14 101 -23 90 -13 -5 5 -32 12 -60 15 -29 3 -42 3
-30 -2z"/>
<path d="M7780 14800 l-25 -8 27 -1 c15 -1 30 4 33 9 7 11 0 11 -35 0z"/>
<path d="M6173 14790 c16 -5 38 -5 50 0 17 7 10 9 -28 9 -43 -1 -46 -2 -22 -9z"/>
<path d="M6908 14793 c6 -2 18 -2 25 0 6 3 1 5 -13 5 -14 0 -19 -2 -12 -5z"/>
<path d="M8450 14790 c14 -4 32 -8 40 -9 13 -1 13 0 0 9 -8 5 -26 9 -40 9
l-25 -1 25 -8z"/>
<path d="M8523 14793 c9 -2 23 -2 30 0 6 3 -1 5 -18 5 -16 0 -22 -2 -12 -5z"/>
<path d="M16583 14695 c0 -22 2 -30 4 -17 2 12 2 30 0 40 -3 9 -5 -1 -4 -23z"/>
<path d="M16632 14630 c0 -14 2 -19 5 -12 2 6 2 18 0 25 -3 6 -5 1 -5 -13z"/>
<path d="M17000 14643 c0 -5 5 -15 10 -23 8 -12 10 -11 10 8 0 12 -4 22 -10
22 -5 0 -10 -3 -10 -7z"/>
<path d="M17040 14593 c0 -15 19 -37 26 -31 3 4 -1 14 -10 23 -9 9 -16 13 -16
8z"/>
<path d="M16548 14510 c-3 -25 -9 -54 -14 -64 -5 -13 -4 -17 4 -12 12 7 27 87
20 108 -3 7 -7 -7 -10 -32z"/>
<path d="M5359 14522 c19 -35 175 -183 246 -234 84 -60 175 -107 270 -139 61
-21 88 -24 215 -24 l146 0 122 63 122 62 34 -17 c18 -10 64 -34 102 -54 98
-52 155 -63 293 -57 131 6 185 22 294 88 36 22 72 40 81 40 8 0 32 -15 55 -34
94 -79 175 -106 318 -106 129 0 206 26 304 102 49 38 85 36 140 -5 24 -19 58
-41 75 -50 50 -26 157 -39 278 -36 l114 4 119 61 c135 71 137 71 214 -1 l48
-45 166 0 c147 0 165 2 165 17 0 33 -70 140 -127 194 -82 78 -124 104 -243
146 l-105 38 -1728 3 c-1685 2 -1728 2 -1718 -16z"/>
<path d="M17064 14532 c-6 -4 -7 -17 -3 -32 l7 -25 1 27 c1 14 7 29 14 31 6 3
8 6 2 6 -5 0 -15 -3 -21 -7z"/>
<path d="M17091 14504 c0 -11 3 -14 6 -6 3 7 2 16 -1 19 -3 4 -6 -2 -5 -13z"/>
<path d="M13648 14460 c-47 -54 -98 -156 -98 -195 0 -17 5 -57 11 -87 14 -70
-1 -110 -46 -119 -24 -4 -59 9 -180 72 -82 43 -175 84 -205 93 -74 20 -150 30
-150 20 0 -5 48 -63 106 -129 129 -146 204 -243 279 -360 82 -126 197 -352
239 -470 20 -55 41 -109 46 -120 5 -11 19 -54 29 -95 58 -218 90 -427 100
-645 5 -111 9 -140 20 -140 8 0 18 11 22 25 4 14 23 75 42 135 91 286 114 587
76 995 -21 224 -118 654 -236 1043 -8 25 -18 21 -55 -23z"/>
<path d="M17100 14459 l-25 -7 25 -1 c18 -1 29 -10 38 -31 8 -16 11 -33 8 -38
-2 -4 5 -9 17 -9 12 -1 17 1 11 5 -5 4 -19 25 -30 48 -17 36 -22 40 -44 33z"/>
<path d="M16521 14404 c0 -11 3 -14 6 -6 3 7 2 16 -1 19 -3 4 -6 -2 -5 -13z"/>
<path d="M16551 14394 c0 -11 3 -14 6 -6 3 7 2 16 -1 19 -3 4 -6 -2 -5 -13z"/>
<path d="M16730 14353 c0 -15 2 -16 10 -3 9 13 13 11 30 -10 21 -27 27 -21 10
11 -13 24 -50 26 -50 2z"/>
<path d="M16500 14340 c0 -19 3 -21 12 -12 9 9 9 15 0 24 -9 9 -12 7 -12 -12z"/>
<path d="M16540 14340 c0 -11 4 -20 9 -20 5 0 7 9 4 20 -3 11 -7 20 -9 20 -2
0 -4 -9 -4 -20z"/>
<path d="M17122 14335 c0 -16 2 -22 5 -12 2 9 2 23 0 30 -3 6 -5 -1 -5 -18z"/>
<path d="M17162 14345 c-11 -13 -9 -15 14 -15 22 0 25 2 14 15 -15 18 -12 18
-28 0z"/>
<path d="M16825 14271 c-5 -18 32 -97 42 -88 2 3 -5 20 -16 38 -23 38 -26 49
-11 49 6 0 10 -7 10 -16 0 -8 4 -12 10 -9 6 4 5 13 -3 25 -15 25 -24 25 -32 1z"/>
<path d="M16680 14260 c0 -5 5 -10 10 -10 6 0 10 5 10 10 0 6 -4 10 -10 10 -5
0 -10 -4 -10 -10z"/>
<path d="M17225 14262 c8 -16 -4 -54 -16 -47 -5 3 -6 -1 -2 -11 5 -14 7 -14
17 5 9 17 14 19 24 9 20 -20 13 5 -9 32 -11 14 -18 19 -14 12z"/>
<path d="M16462 14230 c0 -14 2 -19 5 -12 2 6 2 18 0 25 -3 6 -5 1 -5 -13z"/>
<path d="M16662 14218 c-7 -7 -12 -21 -12 -32 0 -17 3 -16 15 8 17 32 15 42
-3 24z"/>
<path d="M16453 14176 c7 -14 13 -23 15 -21 7 6 -9 45 -18 45 -4 0 -3 -11 3
-24z"/>
<path d="M16423 14154 c-6 -13 -7 -24 -3 -24 9 0 25 39 18 45 -2 2 -8 -7 -15
-21z"/>
<path d="M17270 14152 c-13 -14 -12 -15 2 -10 11 5 18 0 22 -15 9 -33 7 -44
-4 -27 -5 8 -10 11 -10 5 0 -5 5 -17 10 -25 6 -10 10 -11 10 -2 0 20 17 13 23
-10 4 -12 9 -20 12 -17 3 3 -7 31 -23 61 -24 49 -29 53 -42 40z"/>
<path d="M16447 14119 c4 -15 8 -17 19 -8 19 16 17 24 -5 26 -14 1 -17 -3 -14
-18z"/>
<path d="M16601 14108 c5 -10 12 -18 14 -18 3 0 5 8 5 18 0 10 -7 19 -14 19
-11 0 -13 -5 -5 -19z"/>
<path d="M16570 14105 c0 -3 5 -14 12 -24 9 -15 8 -24 -5 -45 -9 -14 -17 -31
-17 -38 1 -7 10 4 21 24 19 37 18 88 -2 88 -5 0 -9 -2 -9 -5z"/>
<path d="M16910 14094 c0 -8 5 -12 10 -9 6 4 8 11 5 16 -9 14 -15 11 -15 -7z"/>
<path d="M16561 14064 c0 -11 3 -14 6 -6 3 7 2 16 -1 19 -3 4 -6 -2 -5 -13z"/>
<path d="M16931 14079 c-1 -4 5 -22 13 -40 l14 -34 -1 38 c0 20 -4 32 -8 26
-4 -8 -8 -7 -12 2 -3 8 -6 11 -6 8z"/>
<path d="M16381 14043 c0 -12 -6 -23 -12 -25 -7 -2 -10 -11 -7 -18 7 -21 31
26 25 48 -4 13 -5 11 -6 -5z"/>
<path d="M17361 14004 c0 -11 3 -14 6 -6 3 7 2 16 -1 19 -3 4 -6 -2 -5 -13z"/>
<path d="M16377 13976 c-4 -10 -3 -15 3 -11 6 3 10 1 10 -6 0 -7 3 -10 6 -6 3
3 2 13 -4 22 -8 16 -9 16 -15 1z"/>
<path d="M16322 13935 c-18 -37 -19 -45 -7 -45 8 0 15 9 15 19 0 11 4 22 9 25
11 7 22 46 13 46 -4 0 -17 -21 -30 -45z"/>
<path d="M17370 13972 c0 -9 49 -82 55 -82 8 0 -39 89 -47 90 -5 0 -8 -3 -8
-8z"/>
<path d="M16980 13966 c0 -14 34 -66 43 -66 5 0 -2 15 -14 33 -30 42 -29 42
-29 33z"/>
<path d="M16492 13931 c-16 -45 -15 -50 4 -23 8 12 14 30 12 40 -3 11 -8 6
-16 -17z"/>
<path d="M16520 13934 c0 -8 5 -12 10 -9 6 3 10 10 10 16 0 5 -4 9 -10 9 -5 0
-10 -7 -10 -16z"/>
<path d="M16370 13922 c0 -5 7 -13 16 -16 10 -4 14 -1 12 6 -5 15 -28 23 -28
10z"/>
<path d="M17376 13903 c-6 -14 -5 -15 5 -6 7 7 10 15 7 18 -3 3 -9 -2 -12 -12z"/>
<path d="M16350 13900 c0 -5 5 -10 11 -10 5 0 7 5 4 10 -3 6 -8 10 -11 10 -2
0 -4 -4 -4 -10z"/>
<path d="M16497 13881 c-24 -42 -21 -52 4 -13 12 18 20 35 17 37 -2 2 -12 -9
-21 -24z"/>
<path d="M16292 13864 c-7 -8 -12 -20 -9 -27 2 -7 9 -2 16 11 15 28 11 36 -7
16z"/>
<path d="M17104 13845 c1 -39 -14 -48 -29 -16 -5 11 -16 21 -24 21 -11 0 -11
-3 0 -17 8 -10 20 -23 28 -29 8 -6 11 -17 7 -25 -4 -8 2 -3 13 11 21 25 28 74
12 84 -4 3 -8 -10 -7 -29z"/>
<path d="M17447 13819 c-3 -11 -1 -31 4 -42 8 -19 9 -18 4 6 -3 15 -1 27 5 27
5 0 10 -5 10 -12 0 -6 3 -9 6 -5 3 3 -1 15 -9 27 l-14 21 -6 -22z"/>
<path d="M16254 13796 c-10 -22 -9 -25 12 -29 13 -2 24 0 24 4 0 5 -5 9 -11 9
-6 0 -9 9 -6 20 7 28 -6 25 -19 -4z"/>
<path d="M16415 13800 c3 -5 8 -10 11 -10 2 0 4 5 4 10 0 6 -5 10 -11 10 -5 0
-7 -4 -4 -10z"/>
<path d="M16440 13785 c-15 -29 -30 -33 -30 -8 0 9 -3 14 -6 10 -8 -8 5 -47
16 -47 9 0 43 61 37 67 -2 1 -10 -8 -17 -22z"/>
<path d="M16312 13775 c0 -16 2 -22 5 -12 2 9 2 23 0 30 -3 6 -5 -1 -5 -18z"/>
<path d="M17480 13768 c0 -9 -6 -18 -12 -21 -7 -2 -10 -8 -6 -12 4 -4 15 0 24
9 12 13 14 20 5 29 -8 8 -11 7 -11 -5z"/>
<path d="M16712 13755 c-58 -42 -164 -230 -210 -375 -72 -231 -124 -411 -120
-415 2 -3 43 0 89 6 82 12 442 6 518 -8 l34 -6 -8 39 c-5 22 -9 122 -10 224
-2 209 -9 239 -86 371 -49 84 -136 179 -165 179 -11 0 -29 -7 -42 -15z"/>
<path d="M17106 13744 c3 -30 11 -41 22 -29 4 4 2 10 -5 12 -7 2 -10 10 -7 18
3 7 1 16 -4 19 -5 3 -8 -6 -6 -20z"/>
<path d="M16224 13733 c-4 -16 -12 -31 -18 -35 -6 -4 -7 -10 -3 -15 5 -4 12
-1 16 6 7 11 10 11 14 0 3 -8 3 1 0 20 -4 24 -3 32 5 27 8 -5 10 -2 6 8 -9 22
-13 20 -20 -11z"/>
<path d="M16333 13715 c-3 -9 -3 -19 1 -22 3 -4 6 1 6 10 0 8 6 18 13 20 9 4
9 6 -1 6 -7 1 -15 -6 -19 -14z"/>
<path d="M16367 13706 c-13 -20 -14 -25 -3 -29 9 -4 16 4 19 21 7 36 3 38 -16
8z"/>
<path d="M5865 13698 c-48 -17 -93 -55 -122 -106 -24 -39 -28 -58 -28 -117 1
-84 24 -135 85 -187 154 -132 393 -18 393 187 0 89 -59 180 -138 216 -45 21
-141 24 -190 7z"/>
<path d="M6669 13696 c-112 -40 -170 -146 -149 -270 24 -144 171 -230 311
-181 64 23 108 62 135 119 41 87 30 190 -27 259 -63 76 -176 107 -270 73z"/>
<path d="M9130 13699 c-50 -20 -102 -64 -128 -108 -22 -38 -27 -58 -27 -116 1
-81 18 -121 76 -177 50 -47 95 -61 177 -56 123 7 203 85 210 204 2 35 1 79 -2
98 -8 42 -76 120 -127 146 -42 22 -135 26 -179 9z"/>
<path d="M17170 13694 c0 -8 5 -12 10 -9 6 3 10 10 10 16 0 5 -4 9 -10 9 -5 0
-10 -7 -10 -16z"/>
<path d="M17139 13673 c4 -15 13 -29 20 -31 9 -3 8 4 -3 27 -20 38 -27 40 -17
4z"/>
<path d="M16130 13649 c-19 -12 -93 -78 -165 -148 -100 -98 -163 -148 -275
-222 -304 -201 -480 -287 -860 -423 -300 -108 -401 -157 -543 -265 -36 -27
-75 -52 -86 -56 -25 -8 -132 -123 -183 -197 -51 -76 -103 -189 -132 -291 -32
-109 -78 -324 -74 -342 2 -10 21 3 58 38 57 55 265 248 432 401 79 73 108 93
153 107 32 10 109 53 183 101 132 88 205 132 357 213 226 121 483 274 650 386
210 141 352 276 401 381 9 20 13 24 10 10 -2 -12 0 -20 5 -16 5 3 9 12 9 20 0
8 4 12 10 9 6 -3 7 1 4 9 -3 9 -10 14 -15 11 -9 -6 37 103 52 121 5 6 5 15 1
20 -4 4 0 3 9 -4 13 -10 15 -21 9 -52 -4 -23 -11 -44 -15 -48 -4 -4 -5 11 -1
33 7 38 7 39 -8 18 -9 -12 -13 -29 -9 -39 5 -13 3 -15 -7 -9 -9 5 -11 4 -6 -3
4 -7 15 -12 24 -12 15 -1 15 -2 -2 -15 -11 -8 -18 -17 -15 -19 2 -2 26 16 53
40 28 24 46 44 41 44 -5 0 -20 -10 -33 -22 -21 -20 -24 -20 -19 -5 4 10 7 23
7 28 0 6 5 7 10 4 6 -3 10 -1 10 4 0 6 -5 11 -11 11 -6 0 -9 6 -6 13 3 7 -1
21 -9 32 -17 23 -18 39 -2 29 8 -5 9 -2 5 9 -4 10 -1 17 5 17 6 0 9 3 5 6 -3
4 3 24 13 45 11 21 20 41 20 44 0 11 -26 4 -60 -16z"/>
<path d="M16202 13658 c-7 -7 -12 -17 -12 -22 0 -6 5 -4 11 4 8 12 10 9 6 -11
-2 -15 2 -35 10 -45 12 -16 13 -15 7 16 -3 19 -7 40 -9 47 -2 6 1 14 8 17 7 2
7 5 2 5 -6 1 -16 -4 -23 -11z"/>
<path d="M7666 13647 c-16 -13 -43 -123 -73 -302 -25 -151 -24 -543 1 -730 44
-326 151 -660 301 -940 83 -153 76 -149 212 -141 124 7 249 38 343 84 30 15
103 61 162 104 58 42 116 81 127 87 33 18 180 190 221 261 51 85 79 166 82
241 l3 61 -130 48 c-307 113 -517 239 -732 436 -86 79 -216 235 -275 329 -83
132 -176 339 -192 427 -7 40 -26 53 -50 35z"/>
<path d="M17191 13644 c0 -11 3 -14 6 -6 3 7 2 16 -1 19 -3 4 -6 -2 -5 -13z"/>
<path d="M17533 13653 c-7 -2 -13 -9 -13 -15 0 -7 5 -7 13 1 11 8 17 5 26 -15
6 -15 14 -25 16 -22 6 5 -18 58 -25 57 -3 0 -11 -3 -17 -6z"/>
<path d="M16232 13625 c0 -16 2 -22 5 -12 2 9 2 23 0 30 -3 6 -5 -1 -5 -18z"/>
<path d="M16343 13634 c-5 -13 -7 -13 -14 -2 -6 9 -9 6 -9 -10 0 -13 4 -20 10
-17 12 7 33 45 25 45 -3 0 -8 -7 -12 -16z"/>
<path d="M17170 13617 c0 -7 32 -67 35 -67 2 0 -1 15 -6 32 -5 18 -9 34 -9 35
0 2 -4 3 -10 3 -5 0 -10 -2 -10 -3z"/>
<path d="M17530 13607 c0 -14 19 -37 31 -37 4 0 2 11 -4 25 -13 27 -27 33 -27
12z"/>
<path d="M16175 13600 c-4 -6 -2 -17 4 -23 15 -15 25 -2 13 19 -7 12 -11 13
-17 4z"/>
<path d="M16244 13555 c-9 -22 4 -48 18 -39 9 6 9 9 0 12 -16 5 -15 29 1 35 9
4 9 6 -1 6 -7 1 -15 -6 -18 -14z"/>
<path d="M16276 13554 c-5 -14 -4 -15 9 -4 17 14 19 20 6 20 -5 0 -12 -7 -15
-16z"/>
<path d="M17220 13547 c0 -18 5 -27 15 -27 13 0 14 4 4 23 -17 33 -19 33 -19
4z"/>
<path d="M17255 13550 c4 -14 12 -29 17 -35 7 -7 8 -2 3 15 -4 14 -12 30 -17
35 -7 7 -8 2 -3 -15z"/>
<path d="M17600 13502 c0 -15 28 -23 36 -9 4 7 4 9 -1 5 -4 -4 -14 -3 -22 3
-8 7 -13 8 -13 1z"/>
<path d="M16180 13483 c8 -3 18 -11 22 -17 4 -6 10 -7 15 -3 9 10 -16 27 -37
26 -13 -1 -13 -1 0 -6z"/>
<path d="M17248 13483 c6 -3 12 -12 12 -21 0 -9 4 -23 8 -30 5 -8 8 0 8 21 -1
26 -5 33 -21 34 -11 1 -14 -1 -7 -4z"/>
<path d="M17640 13460 c0 -5 5 -10 11 -10 5 0 7 5 4 10 -3 6 -8 10 -11 10 -2
0 -4 -4 -4 -10z"/>
<path d="M17607 13431 c-3 -14 -1 -18 9 -14 8 3 14 11 14 19 0 21 -17 17 -23
-5z"/>
<path d="M17292 13390 c13 -20 28 -27 28 -12 0 12 -14 27 -28 30 -10 2 -10 -2
0 -18z"/>
<path d="M17684 13373 c1 -19 5 -28 10 -23 6 6 5 18 -1 32 -10 21 -10 21 -9
-9z"/>
<path d="M17326 13365 c-6 -23 16 -85 30 -85 2 0 -2 13 -11 30 -17 34 -19 50
-5 50 6 0 10 -7 10 -17 0 -9 2 -14 5 -11 8 8 -5 58 -15 58 -4 0 -11 -11 -14
-25z"/>
<path d="M17700 13330 c-12 -7 -10 -9 7 -7 12 0 19 5 17 9 -6 10 -6 10 -24 -2z"/>
<path d="M17730 13301 c0 -6 4 -13 10 -16 6 -3 7 1 4 9 -7 18 -14 21 -14 7z"/>
<path d="M17696 13265 c4 -8 11 -15 16 -15 6 0 5 6 -2 15 -7 8 -14 15 -16 15
-2 0 -1 -7 2 -15z"/>
<path d="M17410 13239 c0 -5 5 -7 10 -4 6 3 10 8 10 11 0 2 -4 4 -10 4 -5 0
-10 -5 -10 -11z"/>
<path d="M17767 13221 c3 -11 11 -22 19 -25 11 -4 12 -2 4 14 -14 27 -29 34
-23 11z"/>
<path d="M17390 13222 c0 -8 6 -20 14 -28 8 -7 16 -19 19 -26 2 -7 7 -11 10
-8 3 3 -6 21 -19 40 -13 19 -24 29 -24 22z"/>
<path d="M17760 13185 c0 -6 4 -15 9 -20 5 -6 11 -19 14 -30 4 -16 5 -14 6 7
0 14 4 28 9 31 4 2 1 2 -7 0 -8 -2 -18 2 -23 9 -4 7 -8 8 -8 3z"/>
<path d="M17811 13144 c0 -11 3 -14 6 -6 3 7 2 16 -1 19 -3 4 -6 -2 -5 -13z"/>
<path d="M17808 13093 c7 -3 16 -2 19 1 4 3 -2 6 -13 5 -11 0 -14 -3 -6 -6z"/>
<path d="M17460 13083 c0 -4 12 -21 26 -38 l25 -30 -15 32 c-16 31 -36 52 -36
36z"/>
<path d="M17845 13070 c-3 -5 -1 -10 4 -10 6 0 11 5 11 10 0 6 -2 10 -4 10 -3
0 -8 -4 -11 -10z"/>
<path d="M17870 13033 c0 -13 5 -23 10 -23 6 0 10 -7 10 -15 0 -8 9 -24 20
-35 26 -26 25 -23 -10 41 -22 39 -30 48 -30 32z"/>
<path d="M17538 13003 c7 -3 16 -2 19 1 4 3 -2 6 -13 5 -11 0 -14 -3 -6 -6z"/>
<path d="M17582 12988 c-14 -14 -16 -42 -3 -34 7 5 23 46 17 46 -1 0 -7 -5
-14 -12z"/>
<path d="M17538 12942 c28 -51 38 -66 29 -41 -3 9 0 22 6 28 9 9 8 11 -5 6
-13 -5 -18 -2 -18 12 0 10 -9 24 -19 30 -16 10 -15 5 7 -35z"/>
<path d="M17855 12977 c-4 -10 -5 -21 -1 -24 10 -10 18 4 13 24 -4 17 -4 17
-12 0z"/>
<path d="M17931 12923 c-1 -6 -4 -20 -7 -30 -5 -15 -4 -15 4 -3 9 12 13 9 21
-13 6 -16 11 -39 11 -52 0 -16 9 -28 29 -38 26 -13 28 -13 24 4 -3 11 -12 19
-19 19 -8 0 -14 9 -14 21 0 11 -8 33 -19 47 -10 15 -21 34 -24 42 -3 8 -6 10
-6 3z"/>
<path d="M17585 12879 c-5 -14 -1 -27 11 -38 14 -13 16 -13 6 0 -6 8 -9 25 -5
37 7 28 -3 29 -12 1z"/>
<path d="M6569 12813 c-79 -71 -199 -247 -199 -290 l0 -23 228 0 c326 0 367
15 305 107 -47 71 -154 184 -202 214 -59 38 -83 36 -132 -8z"/>
<path d="M17640 12834 c0 -8 5 -12 10 -9 6 3 10 10 10 16 0 5 -4 9 -10 9 -5 0
-10 -7 -10 -16z"/>
<path d="M17621 12805 c-1 -21 15 -53 22 -45 2 3 -2 19 -9 35 -10 23 -13 25
-13 10z"/>
<path d="M17921 12804 c0 -11 3 -14 6 -6 3 7 2 16 -1 19 -3 4 -6 -2 -5 -13z"/>
<path d="M17650 12798 c0 -7 8 -22 17 -33 14 -18 15 -18 9 -2 -3 10 -6 25 -6
33 0 8 -4 14 -10 14 -5 0 -10 -6 -10 -12z"/>
<path d="M18021 12755 c1 -19 18 -51 18 -35 0 8 -4 22 -9 30 -5 8 -9 11 -9 5z"/>
<path d="M17656 12737 c3 -10 9 -15 12 -12 3 3 0 11 -7 18 -10 9 -11 8 -5 -6z"/>
<path d="M18046 12693 c-6 -14 -5 -15 5 -6 7 7 10 15 7 18 -3 3 -9 -2 -12 -12z"/>
<path d="M17718 12661 c-12 -14 -13 -21 -3 -34 7 -10 16 -17 21 -17 4 0 3 5
-4 12 -8 8 -8 17 -1 30 14 26 7 32 -13 9z"/>
<path d="M17750 12620 c0 -11 -4 -20 -10 -20 -14 0 -13 -13 3 -33 10 -15 12
-11 14 28 1 25 0 45 -3 45 -2 0 -4 -9 -4 -20z"/>
<path d="M18086 12614 c-3 -9 -2 -12 5 -9 6 4 8 -3 4 -22 -5 -21 -4 -24 4 -13
13 18 14 47 2 54 -5 3 -12 -1 -15 -10z"/>
<path d="M18119 12565 c-3 -30 -1 -48 11 -80 8 -21 14 -25 22 -17 8 8 8 15 0
25 -6 7 -16 31 -21 53 -5 24 -10 31 -12 19z"/>
<path d="M17816 12552 c-3 -6 -1 -14 5 -17 15 -10 25 3 12 16 -7 7 -13 7 -17
1z"/>
<path d="M17816 12516 c10 -8 21 -12 24 -10 5 6 -21 24 -34 24 -6 0 -1 -6 10
-14z"/>
<path d="M17886 12509 c-25 -19 -35 -40 -18 -38 7 0 57 59 49 59 -2 0 -16 -9
-31 -21z"/>
<path d="M18081 12484 c0 -11 3 -14 6 -6 3 7 2 16 -1 19 -3 4 -6 -2 -5 -13z"/>
<path d="M16015 12484 c-16 -3 -84 -11 -150 -20 -264 -32 -556 -113 -810 -222
-151 -66 -412 -222 -535 -321 -184 -148 -438 -419 -546 -583 -66 -100 -134
-233 -134 -262 0 -9 -10 -26 -22 -38 -22 -21 -39 -65 -109 -263 -112 -323 -98
-746 37 -1066 107 -254 356 -626 407 -606 25 10 21 39 -24 160 -74 202 -116
470 -106 677 7 134 32 333 48 390 25 82 244 452 328 552 10 13 47 57 82 98
303 362 732 622 1239 750 320 81 658 100 992 55 238 -31 537 -124 752 -232 86
-43 301 -176 376 -233 248 -187 470 -439 636 -722 21 -37 44 -66 49 -64 6 2 9
34 9 72 -2 93 -88 417 -119 448 -23 22 -39 70 -51 150 -6 41 -11 50 -34 59
-22 8 -44 43 -111 171 -46 88 -103 187 -127 219 -106 144 -334 347 -527 468
-282 177 -611 294 -975 346 -100 14 -512 26 -575 17z"/>
<path d="M18106 12471 c-4 -7 -5 -15 -2 -18 9 -9 19 4 14 18 -4 11 -6 11 -12
0z"/>
<path d="M17897 12449 c7 -7 15 -10 18 -7 3 3 -2 9 -12 12 -14 6 -15 5 -6 -5z"/>
<path d="M18161 12444 c0 -11 3 -14 6 -6 3 7 2 16 -1 19 -3 4 -6 -2 -5 -13z"/>
<path d="M17973 12444 c20 -6 23 -20 5 -26 -8 -3 -7 -6 4 -10 11 -5 15 0 14
15 -1 14 -8 22 -21 24 -16 1 -16 1 -2 -3z"/>
<path d="M17942 12426 c7 -8 15 -12 17 -11 5 6 -10 25 -20 25 -5 0 -4 -6 3
-14z"/>
<path d="M18165 12391 c-4 -18 -4 -35 -1 -38 3 -4 6 3 6 15 0 11 4 22 10 24 5
2 6 9 1 17 -6 10 -11 5 -16 -18z"/>
<path d="M18026 12371 c-3 -5 2 -15 12 -22 15 -12 16 -12 5 2 -7 9 -10 19 -6
22 3 4 4 7 0 7 -3 0 -8 -4 -11 -9z"/>
<path d="M18050 12366 c0 -2 7 -9 15 -16 9 -7 15 -8 15 -2 0 5 -7 12 -15 16
-8 3 -15 4 -15 2z"/>
<path d="M18180 12351 c0 -9 24 -21 43 -21 6 0 2 7 -9 15 -22 17 -34 19 -34 6z"/>
<path d="M18241 12330 c-1 -18 16 -46 23 -40 2 3 -2 16 -9 30 -8 15 -14 19
-14 10z"/>
<path d="M18170 12312 c0 -5 7 -9 15 -9 8 0 15 4 15 9 0 4 -7 8 -15 8 -8 0
-15 -4 -15 -8z"/>
<path d="M18101 12285 c-1 -10 21 -33 46 -48 8 -5 8 1 0 22 -8 22 -14 27 -23
20 -8 -7 -14 -6 -17 3 -3 7 -6 8 -6 3z"/>
<path d="M18253 12263 c-7 -3 -13 -9 -13 -15 0 -7 5 -6 14 1 11 9 15 8 20 -5
8 -22 8 -26 -3 -19 -5 3 -13 0 -17 -6 -4 -7 -3 -9 3 -6 6 4 17 0 24 -9 10 -13
10 -17 -2 -26 -12 -8 -11 -9 2 -5 9 3 21 2 27 -2 15 -9 19 -63 5 -68 -7 -3 -9
3 -6 16 3 12 1 21 -4 21 -13 0 -13 -32 0 -47 14 -18 21 -16 33 11 9 20 6 34
-23 87 -40 74 -44 78 -60 72z"/>
<path d="M18206 12185 c16 -14 32 -25 36 -25 15 0 15 16 1 35 -15 19 -15 19
-8 -5 l7 -25 -21 23 c-12 12 -27 22 -33 22 -6 0 2 -11 18 -25z"/>
<path d="M18260 12155 c0 -15 18 -40 24 -34 3 3 -1 14 -9 25 -8 10 -14 15 -15
9z"/>
<path d="M18346 12085 c-3 -8 -1 -15 4 -15 6 0 10 7 10 15 0 8 -2 15 -4 15 -2
0 -6 -7 -10 -15z"/>
<path d="M18346 12038 c3 -4 12 -8 20 -8 8 0 14 4 14 8 0 4 -9 8 -19 8 -11 0
-17 -4 -15 -8z"/>
<path d="M16185 11573 c-298 -35 -501 -93 -742 -210 -312 -151 -606 -415 -776
-698 -43 -71 -87 -184 -87 -224 0 -20 -7 -31 -26 -39 -30 -14 -46 -50 -85
-196 -41 -149 -50 -346 -24 -481 89 -456 447 -801 1005 -969 142 -42 258 -57
449 -58 281 -1 391 26 708 173 42 19 53 29 53 48 0 23 -2 23 -57 16 -32 -3
-86 -13 -120 -20 -98 -23 -237 -28 -382 -16 -250 22 -407 65 -662 182 -63 28
-130 57 -151 63 -68 21 -248 249 -319 405 -181 398 -70 874 286 1226 219 216
462 343 805 419 229 51 467 56 705 16 200 -34 313 -78 517 -201 56 -34 127
-73 156 -87 35 -16 61 -36 76 -60 20 -31 81 -109 167 -210 10 -12 19 -26 19
-31 0 -4 9 -16 20 -26 11 -10 20 -22 20 -28 0 -5 8 -21 18 -35 10 -15 33 -65
50 -112 122 -332 123 -641 2 -1100 -76 -290 -276 -761 -495 -1165 -238 -438
-264 -486 -398 -705 -138 -226 -237 -380 -334 -520 -33 -47 -111 -159 -173
-250 -63 -91 -117 -167 -120 -170 -10 -9 -140 -208 -140 -214 0 -3 13 -6 29
-6 72 0 307 206 595 521 83 91 158 174 166 185 8 10 31 39 50 64 19 25 38 47
41 50 3 3 39 50 80 105 40 55 77 105 82 110 54 69 238 341 333 493 21 35 51
82 65 105 68 107 85 136 114 192 18 33 47 87 65 120 93 170 210 414 272 570
197 493 277 859 257 1183 -10 164 -26 253 -76 407 -57 177 -246 495 -294 495
-10 0 -19 7 -19 15 0 20 -126 152 -220 229 -292 243 -651 391 -1052 435 -89
10 -383 13 -453 4z"/>
<path d="M16270 11074 c-14 -2 -65 -9 -115 -15 -198 -24 -440 -116 -622 -234
-98 -64 -240 -201 -300 -290 -83 -123 -142 -268 -163 -398 -18 -112 -8 -312
20 -402 148 -468 622 -722 1257 -675 411 31 711 155 932 385 128 134 201 264
248 444 31 119 36 314 10 426 -53 234 -181 421 -389 569 -128 90 -343 166
-528 186 -90 9 -296 11 -350 4z m391 -313 c272 -62 484 -207 579 -395 46 -92
60 -159 60 -291 -1 -114 -11 -161 -60 -260 -111 -225 -387 -409 -712 -475
-141 -29 -392 -30 -524 -1 -223 47 -407 159 -519 316 -90 125 -125 236 -125
390 1 91 13 141 56 230 118 242 438 449 779 506 88 14 370 2 466 -20z"/>
<path d="M16225 10603 c-145 -34 -250 -87 -336 -173 -72 -71 -101 -120 -124
-207 -53 -201 41 -406 231 -505 144 -75 293 -96 474 -68 128 21 292 120 356
217 59 90 76 152 72 273 -3 97 -6 111 -39 181 -65 135 -190 232 -354 274 -56
14 -232 19 -280 8z m206 -233 c48 -13 118 -75 140 -124 25 -54 24 -148 0 -201
-23 -50 -84 -109 -133 -130 -24 -10 -69 -15 -126 -15 -81 0 -92 2 -142 33 -73
44 -110 111 -110 204 0 71 15 110 64 161 34 37 75 61 121 73 45 11 145 10 186
-1z"/>
<path d="M4484 10773 c3 -37 8 -111 12 -163 9 -144 51 -443 85 -608 65 -314
186 -744 254 -902 21 -47 63 -159 95 -250 107 -305 113 -320 131 -325 11 -4
18 -20 21 -49 6 -54 50 -150 112 -245 25 -38 46 -75 46 -80 0 -15 179 -312
260 -432 39 -57 90 -132 113 -167 30 -45 50 -64 70 -69 20 -4 32 -17 48 -52
37 -85 163 -194 444 -385 221 -151 322 -205 715 -383 357 -162 624 -232 1032
-269 219 -20 762 -14 938 10 349 47 854 185 1160 316 36 15 101 42 145 60 123
50 430 203 525 260 47 29 139 79 204 111 135 67 146 74 146 99 0 12 24 32 73
58 84 46 251 165 352 249 39 32 83 65 100 73 16 8 52 37 80 65 27 27 60 54 72
60 75 36 950 884 1134 1100 139 163 219 265 219 279 0 33 -36 22 -153 -45 -67
-39 -147 -85 -177 -102 -30 -18 -188 -129 -350 -248 -291 -212 -389 -280 -482
-333 -26 -14 -68 -44 -93 -66 -26 -22 -52 -40 -58 -40 -23 0 -92 -42 -162 -99
-100 -81 -115 -91 -265 -171 -133 -71 -252 -145 -258 -162 -2 -4 -7 -8 -12 -8
-4 0 -70 -30 -146 -66 -77 -37 -149 -70 -162 -75 -38 -15 -26 -56 28 -94 40
-28 45 -36 48 -76 2 -35 -68 -364 -80 -374 -2 -2 -79 31 -173 72 -93 40 -203
88 -242 104 -73 31 -73 31 -73 70 0 30 -4 39 -17 39 -16 0 -662 -218 -672
-226 -9 -8 21 -54 98 -151 44 -56 81 -110 81 -119 0 -19 -55 -149 -98 -235
-23 -46 -31 -54 -52 -51 -58 8 -214 111 -332 219 -31 28 -70 58 -86 67 -23 12
-31 24 -36 57 -9 55 -33 99 -54 99 -9 0 -84 -12 -167 -25 -96 -16 -213 -28
-322 -32 -164 -6 -173 -7 -173 -26 0 -35 38 -81 150 -177 96 -83 109 -98 104
-120 -7 -31 -106 -203 -144 -250 l-28 -34 -47 39 c-218 184 -324 268 -345 276
-16 6 -50 46 -93 112 -76 117 -107 150 -157 165 -53 17 -258 52 -301 52 -32 0
-37 -3 -32 -17 18 -48 107 -164 161 -208 41 -34 61 -57 61 -73 1 -29 -32 -80
-111 -174 -34 -41 -73 -88 -84 -104 -18 -24 -25 -27 -40 -18 -20 11 -181 226
-289 384 -53 79 -69 113 -92 193 -15 54 -35 106 -43 115 -9 10 -52 26 -95 36
-69 16 -102 33 -260 134 -187 119 -280 170 -291 160 -3 -4 1 -84 10 -180 8
-95 18 -210 22 -255 l6 -82 -37 -7 c-24 -4 -66 0 -116 11 -64 15 -79 22 -81
39 -2 14 -29 34 -88 66 -47 25 -93 50 -102 55 -13 8 -20 42 -32 145 -8 74 -11
138 -8 141 4 3 58 23 121 44 120 41 201 85 201 110 0 18 -65 83 -235 237 -72
64 -148 141 -169 171 -45 62 -126 116 -177 118 -19 1 -65 -2 -104 -6 -47 -5
-110 -2 -190 8 -66 9 -133 13 -149 10 -28 -6 -29 -5 -22 31 12 62 62 228 83
277 11 25 37 63 58 84 26 25 38 46 37 64 -1 29 -40 105 -115 225 -102 164
-215 419 -262 593 -10 36 -27 71 -41 84 -22 21 -28 22 -59 11 -32 -12 -40 -10
-175 58 -137 68 -141 72 -136 98 17 75 66 378 66 402 0 15 -11 52 -24 82 -29
65 -167 490 -194 598 -16 63 -23 76 -42 78 -22 4 -22 2 -16 -65z"/>
<path d="M13468 8965 c-134 -49 -207 -159 -210 -314 -1 -75 0 -79 43 -146 88
-136 132 -165 250 -165 185 0 319 133 319 317 0 59 -25 133 -46 133 -7 0 -19
18 -25 41 -15 49 -84 112 -148 134 -54 18 -133 18 -183 0z"/>
<path d="M16999 8712 c-267 -134 -366 -174 -554 -222 -354 -91 -749 -93 -1099
-4 -133 33 -353 112 -449 160 -75 39 -97 45 -97 31 0 -35 269 -437 415 -623
317 -399 847 -964 906 -964 5 0 20 17 33 38 13 20 85 107 161 192 171 195 368
454 517 680 163 247 201 313 386 662 26 49 72 166 72 183 0 12 -34 -3 -291
-133z m-224 -399 c-76 -139 -215 -335 -363 -513 -171 -204 -304 -350 -320
-350 -57 0 -789 786 -760 816 3 2 63 -9 134 -26 422 -95 896 -50 1284 123 30
14 57 23 59 21 2 -1 -13 -34 -34 -71z"/>
<path d="M14002 8274 c-82 -103 -216 -187 -340 -213 -115 -24 -282 -7 -350 36
-15 10 -54 37 -87 61 -116 85 -158 96 -237 65 -93 -36 -347 -219 -494 -355
-387 -360 -621 -755 -711 -1203 -26 -129 -26 -542 0 -665 43 -199 93 -340 199
-555 203 -413 524 -721 838 -806 25 -7 99 -12 165 -12 106 1 139 6 275 41 140
35 347 102 425 137 63 29 112 47 156 61 43 13 68 38 53 53 -3 3 -83 7 -177 9
-171 3 -174 3 -362 53 -135 36 -197 57 -215 74 -14 12 -41 28 -60 34 -19 6
-51 26 -70 44 -19 18 -55 48 -80 67 -25 19 -47 37 -50 40 -3 3 -27 21 -55 40
-58 40 -55 37 -135 115 -55 53 -130 154 -169 225 -87 163 -152 319 -187 458
-21 80 -27 132 -32 292 -12 317 26 487 157 714 142 247 324 439 556 588 251
162 597 258 927 258 255 0 640 -78 720 -145 17 -14 71 -46 122 -70 50 -25 118
-66 151 -91 33 -25 94 -68 134 -95 41 -28 85 -62 97 -77 24 -29 163 -208 204
-262 14 -19 36 -46 48 -62 13 -15 55 -99 93 -186 162 -365 181 -407 189 -415
9 -10 9 -12 55 247 l36 199 -36 70 c-40 78 -168 282 -212 338 -348 448 -565
654 -821 783 -177 89 -387 144 -607 160 l-70 5 -43 -55z"/>
<path d="M13746 7500 c-462 -89 -817 -393 -926 -794 -39 -142 -42 -392 -5
-536 63 -249 140 -393 294 -548 106 -108 155 -143 268 -192 308 -136 618 -52
830 224 56 73 165 281 187 355 9 30 16 91 16 135 0 144 -37 240 -130 339 -86
92 -185 142 -279 141 -53 0 -79 -7 -133 -34 -93 -45 -92 -60 10 -159 118 -115
152 -206 117 -311 -37 -110 -156 -189 -300 -198 -192 -12 -349 89 -441 282
-34 71 -38 89 -42 180 -8 183 47 321 186 467 118 124 248 201 384 228 394 76
749 -91 937 -441 80 -147 154 -403 129 -444 -4 -5 -14 -54 -23 -109 -24 -143
-58 -252 -110 -356 -70 -138 -125 -211 -276 -364 -77 -77 -146 -151 -156 -164
-16 -23 -15 -25 11 -46 32 -25 111 -55 146 -55 27 0 117 32 165 58 50 28 186
123 260 181 76 59 235 218 235 236 1 16 33 49 61 62 21 9 32 29 57 105 51 155
66 253 65 438 0 132 -5 186 -22 268 -64 297 -217 559 -440 755 -138 121 -359
239 -528 283 -137 36 -400 43 -547 14z"/>
<path d="M10660 6561 c-50 -27 -110 -88 -131 -135 -18 -39 -19 -87 -19 -968 0
-829 2 -928 16 -942 13 -14 47 -16 220 -16 l204 0 0 973 0 974 -40 40 c-49 50
-132 93 -179 93 -20 -1 -52 -9 -71 -19z"/>
<path d="M9880 6275 c-204 -59 -690 -352 -690 -415 0 -6 199 -10 560 -10 638
0 582 -10 531 92 -55 108 -203 285 -276 329 -35 22 -62 22 -125 4z"/>
<path d="M8259 5998 c-47 -64 -106 -193 -130 -283 -24 -94 -28 -299 -7 -379
l13 -50 165 -67 c91 -38 171 -68 178 -69 11 0 13 54 10 278 -3 273 -3 278 -30
354 -55 155 -114 258 -148 258 -12 0 -33 -18 -51 -42z"/>
<path d="M11277 5970 c-19 -70 -29 -476 -18 -727 6 -142 11 -372 11 -510 l0
-253 390 0 c215 0 390 3 390 7 0 11 -52 96 -78 128 -14 17 -54 62 -90 100
-224 240 -368 488 -479 825 -37 112 -101 355 -115 435 -3 18 -5 17 -11 -5z"/>
<path d="M7516 5934 c-59 -49 -116 -125 -116 -155 0 -11 30 -40 78 -73 87 -62
257 -154 267 -145 5 6 -51 171 -115 337 -17 45 -38 82 -45 82 -7 0 -38 -21
-69 -46z"/>
<path d="M8973 5652 c-46 -41 -403 -542 -403 -566 0 -3 410 -6 910 -6 501 0
910 3 910 6 0 15 -64 124 -104 177 -84 113 -300 359 -335 383 -20 13 -47 24
-60 24 -35 0 -93 -65 -234 -261 -64 -90 -126 -175 -136 -188 l-19 -25 -40 26
c-38 26 -127 125 -247 278 -83 105 -165 190 -184 190 -9 0 -35 -17 -58 -38z"/>
<path d="M4532 3284 c-64 -32 -112 -92 -112 -140 0 -69 28 -92 83 -69 28 11
34 19 30 35 -3 11 -9 23 -14 26 -19 11 -9 70 16 94 35 33 74 29 144 -13 35
-22 79 -40 106 -44 l47 -6 -75 -39 c-109 -57 -130 -81 -246 -278 -67 -114
-155 -160 -210 -109 -19 18 -22 29 -19 83 l3 61 -39 -2 c-125 -8 -112 -114 22
-180 48 -24 70 -28 138 -28 153 0 229 62 354 291 62 113 109 173 175 221 28
21 29 23 12 37 -13 10 -27 12 -48 6 -36 -11 -48 -7 -118 39 -47 31 -63 36
-125 39 -61 3 -78 0 -124 -24z"/>
<path d="M12938 3224 c-52 -16 -48 -5 -73 -169 -23 -146 -24 -150 -38 -136
-17 17 -97 13 -142 -8 -70 -32 -146 -122 -170 -203 -25 -85 -99 -158 -159
-158 -36 0 -66 50 -66 110 0 112 44 292 97 392 19 37 33 74 29 83 -8 21 -183
20 -279 -1 -263 -59 -416 -256 -405 -519 3 -72 9 -99 28 -135 34 -61 80 -90
142 -90 81 0 133 32 203 124 l29 38 18 -35 c56 -109 177 -103 300 15 29 28 54
45 56 40 8 -26 48 -66 79 -78 55 -23 106 -4 174 67 32 32 60 55 62 51 2 -4 7
-19 11 -34 8 -35 50 -63 88 -60 33 3 98 44 142 91 33 34 46 39 46 16 0 -8 13
-29 29 -47 27 -30 34 -33 88 -32 66 0 98 14 165 73 36 32 52 40 71 36 48 -13
63 -12 106 7 24 10 45 17 45 16 46 -78 80 -98 167 -98 75 0 137 26 207 86 32
27 42 43 42 66 l0 30 -46 -37 c-85 -70 -163 -78 -209 -23 -14 17 -24 35 -23
40 2 5 39 24 83 43 97 42 145 88 145 139 0 116 -194 110 -298 -9 -40 -44 -58
-80 -67 -128 -9 -45 -63 -97 -103 -97 -50 0 -53 11 -22 75 32 64 50 154 40
195 -4 19 -13 26 -36 28 -88 9 -154 -146 -109 -254 14 -34 14 -38 -8 -64 -32
-42 -74 -61 -104 -47 -45 20 -43 78 8 245 17 57 29 105 27 108 -3 2 -37 -3
-77 -13 l-72 -17 -24 -81 c-13 -44 -27 -97 -30 -117 -5 -27 -21 -50 -56 -83
-51 -48 -56 -50 -78 -36 -21 13 -9 175 29 393 16 98 30 187 30 198 0 24 -24
25 -92 4z m-695 -130 c13 -4 8 -19 -23 -77 -49 -91 -79 -197 -87 -310 -6 -84
-8 -89 -46 -133 -66 -75 -105 -86 -154 -41 -89 80 -19 407 108 509 59 47 153
71 202 52z m1625 -175 c4 -43 -24 -81 -79 -109 -49 -26 -49 -26 -49 10 0 69
54 143 100 138 21 -3 26 -9 28 -39z m-1050 -59 c27 -53 -17 -204 -73 -248 -33
-26 -52 -28 -77 -5 -43 39 -1 208 66 266 29 24 68 18 84 -13z"/>
<path d="M14840 3166 l-65 -11 -26 -70 c-23 -60 -31 -71 -55 -75 -19 -3 -30
-13 -35 -30 -10 -37 -10 -62 0 -55 21 13 21 -19 -1 -87 -17 -53 -32 -81 -57
-103 -76 -68 -121 -81 -121 -35 0 11 16 60 35 108 50 124 54 154 22 186 -15
14 -36 26 -49 26 -36 -1 -98 -34 -163 -88 -33 -28 -62 -49 -64 -47 -2 3 7 32
19 65 12 33 21 62 19 64 -2 2 -33 -1 -68 -7 l-64 -10 -28 -61 c-41 -88 -59
-169 -59 -263 0 -93 -3 -90 78 -72 l49 10 7 70 c8 89 21 114 97 183 97 87 109
76 57 -51 -60 -151 -45 -223 46 -223 49 0 129 35 178 79 l36 31 6 -24 c3 -14
18 -38 32 -55 22 -27 32 -31 75 -31 54 0 88 14 160 65 l47 33 6 -29 c19 -99
131 -105 249 -15 l45 34 6 -32 c4 -18 17 -43 31 -56 20 -19 32 -22 74 -18 59
6 181 80 272 166 49 46 114 80 127 67 2 -2 -7 -19 -21 -37 -39 -52 -57 -94
-57 -132 0 -48 8 -65 41 -81 40 -21 102 -6 186 46 65 39 82 40 83 3 0 -19 65
-72 104 -84 64 -20 146 -8 221 35 72 40 153 102 226 172 l46 44 31 -69 c18
-38 32 -80 32 -95 0 -37 -46 -77 -88 -77 -29 0 -35 5 -52 45 -21 50 -34 51
-82 7 -37 -34 -35 -58 5 -82 73 -45 203 -14 286 69 54 54 62 96 31 165 -25 54
-29 87 -16 124 7 21 5 22 -56 22 l-64 0 -49 -62 c-54 -67 -172 -164 -247 -204
-78 -40 -152 -28 -184 31 -10 19 -16 37 -13 40 3 3 41 14 83 25 118 30 176 76
176 138 0 28 -47 71 -87 78 -117 22 -252 -60 -298 -181 -12 -30 -30 -50 -65
-73 -52 -34 -79 -39 -98 -20 -21 21 -13 50 48 177 33 68 60 125 60 127 0 2
-11 4 -25 4 -16 0 -40 -15 -66 -41 -39 -39 -105 -76 -117 -65 -3 3 0 17 6 31
28 62 6 102 -51 91 -74 -14 -127 -124 -77 -159 20 -14 20 -14 -3 -39 -28 -30
-134 -103 -165 -112 -14 -5 -29 -3 -38 5 -21 17 -13 55 42 196 24 63 44 117
44 120 0 3 -24 2 -52 -2 -107 -13 -101 -9 -133 -93 -47 -125 -72 -170 -117
-202 -46 -34 -69 -37 -88 -15 -17 21 -3 82 50 215 22 56 40 104 40 107 0 8
-123 -8 -142 -18 -15 -8 -68 -132 -82 -194 -8 -36 -77 -92 -126 -101 -66 -14
-76 44 -31 166 l28 75 43 5 c39 5 44 8 56 43 l13 37 -39 0 -40 0 30 82 c17 45
30 83 30 85 0 4 -16 2 -90 -11z m1420 -295 c11 -22 -1 -64 -27 -93 -18 -20
-101 -54 -110 -45 -13 14 20 92 52 124 37 37 69 42 85 14z"/>
<path d="M5062 3132 c-22 -15 -66 -61 -97 -102 -76 -102 -88 -111 -155 -107
-46 2 -55 -1 -58 -16 -2 -12 3 -20 17 -24 35 -9 34 -38 -3 -124 -41 -94 -44
-130 -16 -176 35 -57 111 -82 193 -62 81 19 134 45 142 69 10 31 3 33 -49 10
-26 -11 -65 -20 -87 -20 -57 0 -68 29 -40 104 28 75 27 103 -7 156 l-28 45 30
10 c19 6 54 39 93 85 34 41 74 79 89 85 23 8 29 6 49 -19 24 -30 32 -29 73 7
29 27 28 61 -4 86 -38 30 -92 27 -142 -7z"/>
<path d="M17514 3039 c-46 -11 -117 -67 -139 -110 -8 -15 -15 -52 -15 -81 0
-63 22 -106 109 -211 33 -40 64 -85 70 -100 17 -44 -7 -89 -61 -116 -54 -26
-81 -26 -136 -1 -46 21 -62 48 -62 106 0 39 -15 74 -32 74 -18 0 -88 -84 -88
-106 0 -29 54 -81 110 -107 35 -16 66 -21 140 -21 89 -1 99 1 150 30 30 17 68
48 85 69 26 32 30 45 30 93 -1 65 -9 80 -100 192 -88 108 -95 120 -95 161 0
65 58 105 127 87 37 -10 83 -60 83 -91 0 -33 11 -67 21 -67 18 0 89 73 89 92
0 25 -44 66 -95 89 -51 22 -138 31 -191 18z"/>
<path d="M5332 2971 c-18 -22 -32 -42 -32 -46 0 -3 15 -14 33 -25 47 -29 93
-26 128 9 37 38 39 70 4 63 -14 -2 -39 4 -60 17 -20 11 -37 21 -39 21 -1 0
-17 -18 -34 -39z"/>
<path d="M5719 2938 c-52 -55 -121 -157 -168 -247 l-46 -86 -95 -52 c-99 -55
-129 -63 -149 -39 -16 19 19 93 93 200 30 44 53 82 51 86 -2 4 -38 8 -79 9
l-74 2 -45 -68 c-87 -132 -113 -204 -96 -265 5 -21 19 -43 31 -49 35 -19 112
-4 202 39 83 39 85 40 88 19 2 -12 -11 -56 -30 -97 -56 -126 -104 -242 -100
-246 2 -2 37 -7 76 -10 55 -5 72 -4 72 6 0 10 76 189 84 198 2 1 17 -5 35 -14
39 -19 92 -15 173 16 69 26 85 38 94 73 l7 29 -52 -28 c-68 -35 -129 -42 -165
-19 -43 29 -42 53 7 151 41 81 50 91 99 118 135 74 195 139 205 226 8 72 -2
80 -104 80 -82 0 -85 -1 -114 -32z m167 -33 c11 -27 -6 -65 -45 -108 -38 -41
-121 -96 -121 -80 0 15 100 175 117 189 24 18 42 17 49 -1z"/>
<path d="M9845 2746 l-40 -12 -26 -144 c-20 -114 -29 -144 -40 -140 -33 12
-116 2 -154 -18 -49 -25 -115 -94 -146 -154 -18 -32 -23 -60 -24 -113 0 -82
17 -113 77 -141 36 -16 40 -16 85 1 31 11 66 37 99 71 l51 53 12 -39 c29 -97
110 -92 216 11 l51 49 17 -30 c24 -39 65 -60 122 -60 64 0 104 20 151 73 40
45 42 46 78 36 31 -9 44 -7 81 11 l44 21 35 -35 c70 -70 159 -58 246 33 50 52
59 57 80 49 57 -21 149 36 136 85 l-6 25 -36 -34 c-35 -34 -85 -46 -99 -25 -3
6 0 50 6 100 21 153 -2 192 -108 177 -140 -19 -263 -142 -263 -263 0 -45 -4
-54 -31 -77 -31 -27 -63 -33 -88 -17 -12 8 -12 18 0 73 17 78 17 184 0 201 -7
7 -37 11 -76 11 -73 -2 -150 -32 -207 -83 -46 -40 -88 -123 -88 -172 0 -42
-34 -90 -81 -114 -25 -13 -29 -13 -44 2 -13 13 -15 28 -10 77 9 86 32 226 60
378 14 72 25 135 25 139 0 12 -57 10 -105 -5z m889 -233 c-13 -25 -24 -58 -24
-72 0 -32 31 -101 53 -120 23 -18 21 -33 -8 -65 -31 -33 -65 -33 -96 0 -22 23
-24 34 -24 112 0 100 16 141 68 172 50 31 57 24 31 -27z m-480 -70 c-20 -38
-25 -58 -21 -95 3 -41 12 -60 52 -114 13 -18 -41 -74 -73 -74 -29 0 -45 15
-60 59 -33 95 8 225 82 257 46 20 48 18 20 -33z m-526 -53 c40 -77 -47 -270
-122 -270 -35 0 -46 20 -46 80 0 136 123 276 168 190z"/>
<path d="M11304 2700 c-12 -5 -31 -29 -44 -54 -20 -43 -71 -96 -90 -96 -5 0
-10 24 -12 53 -3 51 -4 52 -36 55 -63 6 -122 -91 -93 -154 6 -13 17 -24 26
-24 21 0 19 -19 -10 -65 -27 -44 -31 -70 -14 -81 14 -8 38 22 76 93 18 34 38
57 60 67 37 17 39 13 19 -35 -39 -97 -22 -185 40 -202 44 -13 93 13 165 86 49
49 59 65 59 93 0 19 -2 34 -5 34 -3 0 -22 -18 -42 -41 -51 -56 -70 -65 -94
-43 -25 22 -24 52 5 197 12 65 20 119 17 121 -3 2 -16 0 -27 -4z"/>
<path d="M8078 2686 c-108 -39 -247 -211 -293 -363 -22 -71 -19 -175 5 -222
22 -44 70 -88 107 -97 13 -4 53 -4 88 -2 250 21 548 440 452 636 -39 81 -171
63 -257 -35 -71 -82 -87 -203 -30 -233 29 -15 73 -11 98 9 22 19 30 51 13 51
-5 0 -17 7 -26 16 -43 43 47 194 116 194 91 0 73 -181 -35 -343 -89 -134 -183
-209 -262 -211 -133 -3 -161 160 -63 362 32 67 58 102 120 164 44 44 79 81 79
84 0 9 -77 2 -112 -10z"/>
<path d="M18896 2653 c-36 -42 -29 -61 29 -81 51 -17 100 -1 120 38 22 43 19
50 -23 50 -21 0 -47 7 -58 15 -27 21 -35 18 -68 -22z"/>
<path d="M17939 2664 c-119 -36 -199 -132 -199 -238 0 -57 24 -107 62 -127 64
-35 152 -26 218 21 31 22 33 23 62 5 30 -17 90 -22 127 -10 15 5 22 -1 31 -29
17 -51 69 -92 134 -106 66 -13 108 -7 202 32 60 24 73 33 77 56 3 15 4 28 2
30 -2 2 -26 -8 -54 -22 -36 -19 -66 -26 -106 -26 -49 0 -60 4 -86 29 -35 35
-41 85 -18 158 14 46 83 105 117 101 26 -3 27 -5 25 -57 l-3 -54 52 7 c29 4
58 12 65 18 21 17 15 56 -16 90 -26 29 -35 33 -99 36 -60 4 -79 0 -126 -21
-61 -28 -143 -105 -152 -143 -7 -27 -69 -64 -106 -64 -13 0 -31 7 -41 14 -17
13 -16 17 17 77 19 35 42 88 51 116 16 48 16 55 2 77 -28 42 -149 58 -238 30z
m112 -64 c-22 -22 -43 -51 -47 -65 -7 -27 -1 -103 11 -142 6 -17 1 -25 -24
-37 -71 -37 -105 -11 -99 80 7 107 86 204 166 204 l34 0 -41 -40z"/>
<path d="M6079 2611 c-163 -52 -258 -201 -203 -317 40 -84 148 -83 259 2 l35
26 0 -45 c0 -29 7 -53 19 -68 46 -57 189 -10 340 112 53 42 83 59 104 59 l29
0 -31 -39 c-17 -22 -41 -60 -52 -86 -37 -83 5 -143 93 -133 34 4 115 36 169
65 4 2 9 -14 13 -35 15 -95 118 -107 236 -27 29 19 53 35 55 35 1 0 5 -18 9
-39 15 -95 124 -95 261 -1 33 22 45 38 45 55 0 30 -4 31 -40 5 -85 -60 -139
-55 -126 11 3 19 31 87 60 152 l55 117 -52 -1 c-104 -3 -105 -4 -153 -109 -48
-106 -81 -152 -128 -181 -105 -64 -108 22 -7 231 23 46 39 85 37 87 -2 2 -35
0 -75 -3 -71 -7 -72 -7 -95 -48 -13 -23 -36 -73 -51 -112 -23 -60 -34 -75 -65
-93 -48 -27 -96 -28 -105 -2 -8 26 7 60 77 179 33 56 59 104 57 106 -21 19
-48 13 -75 -15 -33 -35 -94 -69 -123 -69 -18 0 -19 2 -5 28 22 42 18 81 -9 91
-37 14 -76 1 -107 -37 -33 -41 -39 -85 -14 -113 14 -15 12 -20 -28 -51 -69
-55 -115 -80 -145 -76 -48 5 -42 42 32 183 36 70 63 130 60 133 -3 4 -38 -2
-77 -12 -59 -15 -72 -16 -79 -5 -5 8 -9 18 -9 22 0 13 -67 37 -102 36 -18 0
-58 -8 -89 -18z m151 -52 c23 -42 -20 -140 -89 -202 -50 -45 -76 -53 -106 -33
-33 21 -32 58 1 124 52 104 164 168 194 111z"/>
<path d="M9255 2588 c-16 -4 -49 -12 -71 -18 -34 -8 -43 -16 -48 -38 -26 -110
-36 -132 -60 -132 -25 0 -36 -17 -36 -56 0 -17 6 -24 18 -24 18 0 18 -3 -2
-89 -17 -73 -26 -93 -52 -114 -62 -52 -114 -53 -114 -2 0 13 21 83 46 155 25
73 44 133 42 135 -4 4 -147 -21 -152 -26 -1 -2 -20 -52 -41 -111 -39 -112 -75
-165 -129 -192 -22 -11 -35 -12 -49 -4 -28 15 -18 79 34 217 23 62 40 114 37
116 -2 2 -36 -1 -76 -7 l-72 -11 -24 -66 c-55 -144 -68 -238 -42 -290 16 -29
53 -51 89 -51 32 0 118 43 159 79 l36 31 6 -35 c8 -41 47 -75 88 -75 39 0 90
23 148 65 54 39 60 41 60 19 0 -8 13 -29 29 -45 54 -53 140 -33 239 55 40 37
52 54 52 78 l0 29 -47 -39 c-56 -47 -85 -57 -113 -42 -25 14 -26 76 -2 170 17
64 18 65 59 75 49 12 48 11 56 53 6 32 6 32 -32 32 l-39 0 19 70 c25 88 23 98
-16 88z"/>
<path d="M18783 2428 c-55 -85 -78 -133 -93 -195 -10 -46 -10 -57 7 -90 18
-38 18 -38 78 -38 47 0 73 7 122 32 l63 31 10 -36 c5 -21 17 -48 26 -61 45
-63 190 -81 299 -36 65 27 79 30 70 15 -3 -5 -1 -28 5 -50 25 -93 133 -104
292 -30 23 11 44 47 34 58 -2 1 -31 -6 -64 -17 -68 -23 -105 -17 -115 18 -6
23 23 83 75 158 30 44 31 45 74 38 41 -6 45 -5 64 27 l20 33 -35 9 c-19 5 -35
12 -35 16 0 4 20 35 45 71 24 35 41 67 37 70 -4 4 -38 9 -77 12 l-70 6 -44
-65 c-40 -59 -47 -65 -71 -61 -21 5 -30 0 -43 -23 -21 -35 -22 -50 -2 -50 8 0
15 -3 15 -7 -1 -10 -90 -150 -90 -141 0 4 -23 -4 -52 -19 -84 -42 -173 -30
-203 28 -25 47 -20 57 33 64 142 17 207 46 224 97 31 93 -119 156 -243 101
-58 -26 -125 -85 -149 -133 -14 -28 -32 -43 -70 -59 -87 -37 -107 -12 -62 76
16 32 50 90 76 130 25 39 46 74 46 77 0 3 -35 6 -78 6 l-78 0 -41 -62z m492
-77 c9 -29 -11 -69 -46 -90 -32 -20 -97 -36 -106 -27 -12 11 10 59 43 96 29
31 44 40 69 40 24 0 35 -5 40 -19z"/>
<path d="M19835 2153 c-123 -149 -148 -265 -66 -308 45 -23 105 -17 195 20 16
7 17 5 8 -11 -26 -47 -40 -55 -112 -70 -87 -18 -121 -34 -149 -70 -28 -36 -27
-75 4 -104 20 -19 36 -23 82 -24 74 0 128 27 208 104 57 55 64 59 130 69 89
13 166 36 176 53 5 7 9 21 9 31 0 16 -2 16 -28 3 -38 -19 -149 -48 -174 -44
-16 2 1 29 98 157 122 161 125 170 59 171 -16 0 -46 3 -65 5 -32 5 -38 2 -70
-42 -97 -130 -192 -208 -247 -201 -62 7 -31 83 89 220 39 43 68 81 65 84 -5 5
-113 24 -139 24 -9 0 -42 -30 -73 -67z m46 -431 c-19 -36 -91 -93 -114 -90
-34 5 -35 52 -2 74 25 17 116 45 123 39 2 -2 -1 -12 -7 -23z"/>
</g>
</svg>
